<?xml version="1.0" encoding="UTF-8" standalone="no"?>
<!DOCTYPE svg PUBLIC "-//W3C//DTD SVG 1.1//EN" "http://www.w3.org/Graphics/SVG/1.1/DTD/svg11.dtd">
<svg width="100%" height="100%" viewBox="0 0 16 16" version="1.1" xmlns="http://www.w3.org/2000/svg" xmlns:xlink="http://www.w3.org/1999/xlink" xml:space="preserve" xmlns:serif="http://www.serif.com/" style="fill-rule:evenodd;clip-rule:evenodd;stroke-linejoin:round;stroke-miterlimit:2;">
    <g transform="matrix(0.583333,0,0,0.583333,2.83333,3.83333)">
        <g id="string_variable">
            <circle cx="8" cy="8" r="6" style="fill:rgb(26,114,16);fill-opacity:0.5;"/>
            <path d="M8,2C11.311,2 14,4.689 14,8C14,11.311 11.311,14 8,14C4.689,14 2,11.311 2,8C2,4.689 4.689,2 8,2ZM8,3.714C10.365,3.714 12.286,5.635 12.286,8C12.286,10.365 10.365,12.286 8,12.286C5.635,12.286 3.714,10.365 3.714,8C3.714,5.635 5.635,3.714 8,3.714Z" style="fill:rgb(26,114,16);"/>
        </g>
    </g>
</svg>
