<?xml version="1.0" encoding="utf-8" standalone="no"?>
<!DOCTYPE svg PUBLIC "-//W3C//DTD SVG 1.1//EN"
  "http://www.w3.org/Graphics/SVG/1.1/DTD/svg11.dtd">
<!-- Created with matplotlib (https://matplotlib.org/) -->
<svg height="216pt" version="1.1" viewBox="0 0 576 216" width="576pt" xmlns="http://www.w3.org/2000/svg" xmlns:xlink="http://www.w3.org/1999/xlink">
 <defs>
  <style type="text/css">
*{stroke-linecap:butt;stroke-linejoin:round;}
  </style>
 </defs>
 <g id="figure_1">
  <g id="patch_1">
   <path d="M 0 216 
L 576 216 
L 576 0 
L 0 0 
z
" style="fill:#ffffff;"/>
  </g>
  <g id="axes_1">
   <g id="patch_2">
    <path d="M 64.368 96.143735 
L 556.3125 96.143735 
L 556.3125 10.8 
L 64.368 10.8 
z
" style="fill:#ffffff;"/>
   </g>
   <g id="matplotlib.axis_1">
    <g id="xtick_1">
     <g id="line2d_1">
      <path clip-path="url(#p5fcf996f40)" d="M 64.368 96.143735 
L 64.368 10.8 
" style="fill:none;stroke:#cccccc;stroke-linecap:square;stroke-width:0.8;"/>
     </g>
     <g id="line2d_2">
      <defs>
       <path d="M 0 0 
L 0 -3.5 
" id="m8992544bc0" style="stroke:#000000;stroke-width:0.8;"/>
      </defs>
      <g>
       <use style="stroke:#000000;stroke-width:0.8;" x="64.368" xlink:href="#m8992544bc0" y="96.143735"/>
      </g>
     </g>
    </g>
    <g id="xtick_2">
     <g id="line2d_3">
      <path clip-path="url(#p5fcf996f40)" d="M 125.861063 96.143735 
L 125.861063 10.8 
" style="fill:none;stroke:#cccccc;stroke-linecap:square;stroke-width:0.8;"/>
     </g>
     <g id="line2d_4">
      <g>
       <use style="stroke:#000000;stroke-width:0.8;" x="125.861063" xlink:href="#m8992544bc0" y="96.143735"/>
      </g>
     </g>
    </g>
    <g id="xtick_3">
     <g id="line2d_5">
      <path clip-path="url(#p5fcf996f40)" d="M 187.354125 96.143735 
L 187.354125 10.8 
" style="fill:none;stroke:#cccccc;stroke-linecap:square;stroke-width:0.8;"/>
     </g>
     <g id="line2d_6">
      <g>
       <use style="stroke:#000000;stroke-width:0.8;" x="187.354125" xlink:href="#m8992544bc0" y="96.143735"/>
      </g>
     </g>
    </g>
    <g id="xtick_4">
     <g id="line2d_7">
      <path clip-path="url(#p5fcf996f40)" d="M 248.847188 96.143735 
L 248.847188 10.8 
" style="fill:none;stroke:#cccccc;stroke-linecap:square;stroke-width:0.8;"/>
     </g>
     <g id="line2d_8">
      <g>
       <use style="stroke:#000000;stroke-width:0.8;" x="248.847188" xlink:href="#m8992544bc0" y="96.143735"/>
      </g>
     </g>
    </g>
    <g id="xtick_5">
     <g id="line2d_9">
      <path clip-path="url(#p5fcf996f40)" d="M 310.34025 96.143735 
L 310.34025 10.8 
" style="fill:none;stroke:#cccccc;stroke-linecap:square;stroke-width:0.8;"/>
     </g>
     <g id="line2d_10">
      <g>
       <use style="stroke:#000000;stroke-width:0.8;" x="310.34025" xlink:href="#m8992544bc0" y="96.143735"/>
      </g>
     </g>
    </g>
    <g id="xtick_6">
     <g id="line2d_11">
      <path clip-path="url(#p5fcf996f40)" d="M 371.833313 96.143735 
L 371.833313 10.8 
" style="fill:none;stroke:#cccccc;stroke-linecap:square;stroke-width:0.8;"/>
     </g>
     <g id="line2d_12">
      <g>
       <use style="stroke:#000000;stroke-width:0.8;" x="371.833313" xlink:href="#m8992544bc0" y="96.143735"/>
      </g>
     </g>
    </g>
    <g id="xtick_7">
     <g id="line2d_13">
      <path clip-path="url(#p5fcf996f40)" d="M 433.326375 96.143735 
L 433.326375 10.8 
" style="fill:none;stroke:#cccccc;stroke-linecap:square;stroke-width:0.8;"/>
     </g>
     <g id="line2d_14">
      <g>
       <use style="stroke:#000000;stroke-width:0.8;" x="433.326375" xlink:href="#m8992544bc0" y="96.143735"/>
      </g>
     </g>
    </g>
    <g id="xtick_8">
     <g id="line2d_15">
      <path clip-path="url(#p5fcf996f40)" d="M 494.819438 96.143735 
L 494.819438 10.8 
" style="fill:none;stroke:#cccccc;stroke-linecap:square;stroke-width:0.8;"/>
     </g>
     <g id="line2d_16">
      <g>
       <use style="stroke:#000000;stroke-width:0.8;" x="494.819438" xlink:href="#m8992544bc0" y="96.143735"/>
      </g>
     </g>
    </g>
    <g id="xtick_9">
     <g id="line2d_17">
      <path clip-path="url(#p5fcf996f40)" d="M 556.3125 96.143735 
L 556.3125 10.8 
" style="fill:none;stroke:#cccccc;stroke-linecap:square;stroke-width:0.8;"/>
     </g>
     <g id="line2d_18">
      <g>
       <use style="stroke:#000000;stroke-width:0.8;" x="556.3125" xlink:href="#m8992544bc0" y="96.143735"/>
      </g>
     </g>
    </g>
   </g>
   <g id="matplotlib.axis_2">
    <g id="ytick_1">
     <g id="line2d_19">
      <path clip-path="url(#p5fcf996f40)" d="M 64.368 91.732649 
L 556.3125 91.732649 
" style="fill:none;stroke:#cccccc;stroke-linecap:square;stroke-width:0.8;"/>
     </g>
     <g id="line2d_20">
      <defs>
       <path d="M 0 0 
L 3.5 0 
" id="m4606d0bf90" style="stroke:#000000;stroke-width:0.8;"/>
      </defs>
      <g>
       <use style="stroke:#000000;stroke-width:0.8;" x="64.368" xlink:href="#m4606d0bf90" y="91.732649"/>
      </g>
     </g>
     <g id="text_1">
      <!-- −2 -->
      <defs>
       <path d="M 10.59375 35.5 
L 73.1875 35.5 
L 73.1875 27.203125 
L 10.59375 27.203125 
z
" id="DejaVuSans-8722"/>
       <path d="M 19.1875 8.296875 
L 53.609375 8.296875 
L 53.609375 0 
L 7.328125 0 
L 7.328125 8.296875 
Q 12.9375 14.109375 22.625 23.890625 
Q 32.328125 33.6875 34.8125 36.53125 
Q 39.546875 41.84375 41.421875 45.53125 
Q 43.3125 49.21875 43.3125 52.78125 
Q 43.3125 58.59375 39.234375 62.25 
Q 35.15625 65.921875 28.609375 65.921875 
Q 23.96875 65.921875 18.8125 64.3125 
Q 13.671875 62.703125 7.8125 59.421875 
L 7.8125 69.390625 
Q 13.765625 71.78125 18.9375 73 
Q 24.125 74.21875 28.421875 74.21875 
Q 39.75 74.21875 46.484375 68.546875 
Q 53.21875 62.890625 53.21875 53.421875 
Q 53.21875 48.921875 51.53125 44.890625 
Q 49.859375 40.875 45.40625 35.40625 
Q 44.1875 33.984375 37.640625 27.21875 
Q 31.109375 20.453125 19.1875 8.296875 
z
" id="DejaVuSans-50"/>
      </defs>
      <g transform="translate(49.07425 94.772024)scale(0.08 -0.08)">
       <use xlink:href="#DejaVuSans-8722"/>
       <use x="83.789062" xlink:href="#DejaVuSans-50"/>
      </g>
     </g>
    </g>
    <g id="ytick_2">
     <g id="line2d_21">
      <path clip-path="url(#p5fcf996f40)" d="M 64.368 72.60221 
L 556.3125 72.60221 
" style="fill:none;stroke:#cccccc;stroke-linecap:square;stroke-width:0.8;"/>
     </g>
     <g id="line2d_22">
      <g>
       <use style="stroke:#000000;stroke-width:0.8;" x="64.368" xlink:href="#m4606d0bf90" y="72.60221"/>
      </g>
     </g>
     <g id="text_2">
      <!-- −1 -->
      <defs>
       <path d="M 12.40625 8.296875 
L 28.515625 8.296875 
L 28.515625 63.921875 
L 10.984375 60.40625 
L 10.984375 69.390625 
L 28.421875 72.90625 
L 38.28125 72.90625 
L 38.28125 8.296875 
L 54.390625 8.296875 
L 54.390625 0 
L 12.40625 0 
z
" id="DejaVuSans-49"/>
      </defs>
      <g transform="translate(49.07425 75.641585)scale(0.08 -0.08)">
       <use xlink:href="#DejaVuSans-8722"/>
       <use x="83.789062" xlink:href="#DejaVuSans-49"/>
      </g>
     </g>
    </g>
    <g id="ytick_3">
     <g id="line2d_23">
      <path clip-path="url(#p5fcf996f40)" d="M 64.368 53.471772 
L 556.3125 53.471772 
" style="fill:none;stroke:#cccccc;stroke-linecap:square;stroke-width:0.8;"/>
     </g>
     <g id="line2d_24">
      <g>
       <use style="stroke:#000000;stroke-width:0.8;" x="64.368" xlink:href="#m4606d0bf90" y="53.471772"/>
      </g>
     </g>
     <g id="text_3">
      <!-- 0 -->
      <defs>
       <path d="M 31.78125 66.40625 
Q 24.171875 66.40625 20.328125 58.90625 
Q 16.5 51.421875 16.5 36.375 
Q 16.5 21.390625 20.328125 13.890625 
Q 24.171875 6.390625 31.78125 6.390625 
Q 39.453125 6.390625 43.28125 13.890625 
Q 47.125 21.390625 47.125 36.375 
Q 47.125 51.421875 43.28125 58.90625 
Q 39.453125 66.40625 31.78125 66.40625 
z
M 31.78125 74.21875 
Q 44.046875 74.21875 50.515625 64.515625 
Q 56.984375 54.828125 56.984375 36.375 
Q 56.984375 17.96875 50.515625 8.265625 
Q 44.046875 -1.421875 31.78125 -1.421875 
Q 19.53125 -1.421875 13.0625 8.265625 
Q 6.59375 17.96875 6.59375 36.375 
Q 6.59375 54.828125 13.0625 64.515625 
Q 19.53125 74.21875 31.78125 74.21875 
z
" id="DejaVuSans-48"/>
      </defs>
      <g transform="translate(55.778 56.511147)scale(0.08 -0.08)">
       <use xlink:href="#DejaVuSans-48"/>
      </g>
     </g>
    </g>
    <g id="ytick_4">
     <g id="line2d_25">
      <path clip-path="url(#p5fcf996f40)" d="M 64.368 34.341334 
L 556.3125 34.341334 
" style="fill:none;stroke:#cccccc;stroke-linecap:square;stroke-width:0.8;"/>
     </g>
     <g id="line2d_26">
      <g>
       <use style="stroke:#000000;stroke-width:0.8;" x="64.368" xlink:href="#m4606d0bf90" y="34.341334"/>
      </g>
     </g>
     <g id="text_4">
      <!-- 1 -->
      <g transform="translate(55.778 37.380709)scale(0.08 -0.08)">
       <use xlink:href="#DejaVuSans-49"/>
      </g>
     </g>
    </g>
    <g id="ytick_5">
     <g id="line2d_27">
      <path clip-path="url(#p5fcf996f40)" d="M 64.368 15.210896 
L 556.3125 15.210896 
" style="fill:none;stroke:#cccccc;stroke-linecap:square;stroke-width:0.8;"/>
     </g>
     <g id="line2d_28">
      <g>
       <use style="stroke:#000000;stroke-width:0.8;" x="64.368" xlink:href="#m4606d0bf90" y="15.210896"/>
      </g>
     </g>
     <g id="text_5">
      <!-- 2 -->
      <g transform="translate(55.778 18.250271)scale(0.08 -0.08)">
       <use xlink:href="#DejaVuSans-50"/>
      </g>
     </g>
    </g>
    <g id="text_6">
     <!-- x0 -->
     <defs>
      <path d="M 54.890625 54.6875 
L 35.109375 28.078125 
L 55.90625 0 
L 45.3125 0 
L 29.390625 21.484375 
L 13.484375 0 
L 2.875 0 
L 24.125 28.609375 
L 4.6875 54.6875 
L 15.28125 54.6875 
L 29.78125 35.203125 
L 44.28125 54.6875 
z
" id="DejaVuSans-120"/>
     </defs>
     <g transform="translate(5.33466 51.808118)scale(0.08 -0.08)">
      <use xlink:href="#DejaVuSans-120"/>
      <use x="59.179688" xlink:href="#DejaVuSans-48"/>
     </g>
    </g>
   </g>
   <g id="patch_3">
    <path d="M 64.368 96.143735 
L 64.368 10.8 
" style="fill:none;stroke:#000000;stroke-linecap:square;stroke-linejoin:miter;stroke-width:0.5;"/>
   </g>
   <g id="patch_4">
    <path d="M 556.3125 96.143735 
L 556.3125 10.8 
" style="fill:none;stroke:#000000;stroke-linecap:square;stroke-linejoin:miter;stroke-width:0.5;"/>
   </g>
   <g id="patch_5">
    <path d="M 64.368 96.143735 
L 556.3125 96.143735 
" style="fill:none;stroke:#000000;stroke-linecap:square;stroke-linejoin:miter;stroke-width:0.5;"/>
   </g>
   <g id="patch_6">
    <path d="M 64.368 10.8 
L 556.3125 10.8 
" style="fill:none;stroke:#000000;stroke-linecap:square;stroke-linejoin:miter;stroke-width:0.5;"/>
   </g>
   <g id="line2d_29">
    <path clip-path="url(#p5fcf996f40)" d="M 64.368 15.210896 
L 66.335778 15.311904 
L 68.549528 15.660461 
L 71.009251 16.271104 
L 73.960918 17.236044 
L 77.404529 18.603296 
L 81.340085 20.416479 
L 85.521614 22.598688 
L 89.457169 24.890897 
L 93.392725 27.437159 
L 97.082309 30.093229 
L 100.525921 32.855281 
L 103.72356 35.71796 
L 106.675227 38.670074 
L 109.380922 41.690311 
L 112.086616 45.067063 
L 114.546339 48.495448 
L 117.006062 52.307591 
L 119.465784 56.52939 
L 122.171479 61.634883 
L 125.61509 68.66333 
L 130.288563 78.205707 
L 132.502313 82.197082 
L 134.224119 84.878595 
L 135.945925 87.124891 
L 137.421758 88.688805 
L 138.897592 89.927692 
L 140.373425 90.863935 
L 141.849259 91.529292 
L 143.325092 91.959153 
L 145.046898 92.209379 
L 146.768704 92.23731 
L 148.736482 92.052701 
L 151.196204 91.57157 
L 153.901899 90.803101 
L 157.099538 89.657379 
L 160.789122 88.094804 
L 164.97065 86.070995 
L 169.152178 83.799638 
L 173.333707 81.269638 
L 177.269263 78.618733 
L 180.712874 76.043394 
L 183.910514 73.393445 
L 186.862181 70.680233 
L 189.813848 67.657336 
L 192.519542 64.560463 
L 194.979265 61.426227 
L 197.438987 57.942632 
L 199.89871 54.070027 
L 202.358432 49.785911 
L 205.064127 44.618033 
L 208.753711 37.028453 
L 212.935239 28.526446 
L 215.148989 24.557645 
L 216.870795 21.900045 
L 218.346629 19.969592 
L 219.822462 18.373348 
L 221.298295 17.104426 
L 222.774129 16.140635 
L 224.249963 15.451174 
L 225.725796 15.001035 
L 227.447602 14.731104 
L 229.169408 14.687295 
L 231.137186 14.857748 
L 233.350936 15.267904 
L 236.056631 16.005574 
L 239.25427 17.124131 
L 242.943853 18.662409 
L 247.125382 20.662688 
L 251.30691 22.910514 
L 255.488438 25.414497 
L 259.423994 28.036324 
L 263.113578 30.773124 
L 266.311217 33.409681 
L 269.262884 36.107685 
L 272.214551 39.112312 
L 274.920246 42.189156 
L 277.379969 45.302195 
L 279.839691 48.761763 
L 282.299414 52.608098 
L 284.759136 56.865378 
L 287.464831 62.006989 
L 291.154415 69.579065 
L 295.335943 78.109864 
L 297.549693 82.117882 
L 299.271499 84.814126 
L 300.993305 87.076109 
L 302.469138 88.652839 
L 303.944972 89.903396 
L 305.420805 90.850353 
L 306.896638 91.524892 
L 308.372472 91.962405 
L 310.094278 92.219901 
L 311.816083 92.253762 
L 313.783862 92.074127 
L 315.997612 91.656127 
L 318.703306 90.91157 
L 321.900946 89.786892 
L 325.59053 88.243065 
L 329.526086 86.362543 
L 333.707614 84.124282 
L 337.889142 81.630629 
L 341.824698 79.02009 
L 345.514282 76.296107 
L 348.711921 73.673324 
L 351.90956 70.753923 
L 354.861227 67.739597 
L 357.566922 64.652136 
L 360.026645 61.527867 
L 362.486367 58.05554 
L 364.94609 54.19528 
L 367.405812 49.923745 
L 370.111507 44.768111 
L 373.801091 37.186508 
L 377.982619 28.670498 
L 380.196369 24.683141 
L 381.918175 22.007175 
L 383.639981 19.767575 
L 385.115814 18.209974 
L 386.591648 16.977592 
L 388.067481 16.047278 
L 389.543315 15.387278 
L 391.019148 14.962391 
L 392.740954 14.717139 
L 394.46276 14.693226 
L 396.430538 14.881469 
L 398.89026 15.366043 
L 401.595955 16.137383 
L 404.793594 17.2854 
L 408.483178 18.849888 
L 412.418734 20.749157 
L 416.600262 23.007123 
L 420.78179 25.52201 
L 424.717346 28.156081 
L 428.160958 30.713629 
L 431.358597 33.343681 
L 434.310264 36.034588 
L 437.261931 39.030568 
L 439.967626 42.09798 
L 442.427348 45.201014 
L 444.887071 48.649237 
L 447.346793 52.483123 
L 449.806516 56.72762 
L 452.51221 61.856643 
L 455.955822 68.905062 
L 460.629295 78.435464 
L 462.843045 82.401969 
L 464.564851 85.057465 
L 466.040684 86.985813 
L 467.516518 88.579761 
L 468.992351 89.84677 
L 470.468185 90.808648 
L 471.944018 91.496388 
L 473.419852 91.945188 
L 475.141658 92.213588 
L 476.863463 92.256249 
L 478.831241 92.08484 
L 481.044992 91.673727 
L 483.750686 90.935292 
L 486.948326 89.816161 
L 490.637909 88.277118 
L 494.819438 86.276456 
L 499.000966 84.028056 
L 503.182494 81.523499 
L 507.11805 78.900907 
L 510.807634 76.163341 
L 514.005273 73.526211 
L 517.202912 70.589286 
L 520.154579 67.555409 
L 522.860274 64.44656 
L 525.319997 61.29966 
L 527.779719 57.801717 
L 530.239442 53.913492 
L 532.699164 49.613469 
L 535.404859 44.430153 
L 539.340415 36.315614 
L 543.029999 28.816463 
L 545.243749 24.810549 
L 546.965555 22.11641 
L 548.68736 19.856914 
L 550.163194 18.282096 
L 551.639027 17.033452 
L 553.114861 16.088217 
L 554.590694 15.415209 
L 556.066528 14.979035 
L 556.3125 14.927 
L 556.3125 14.927 
" style="fill:none;stroke:#0000ff;stroke-linecap:square;stroke-width:0.9;"/>
   </g>
  </g>
  <g id="axes_2">
   <g id="patch_7">
    <path d="M 64.368 193.42 
L 556.3125 193.42 
L 556.3125 108.076265 
L 64.368 108.076265 
z
" style="fill:#ffffff;"/>
   </g>
   <g id="matplotlib.axis_3">
    <g id="xtick_10">
     <g id="line2d_30">
      <path clip-path="url(#p019addf22d)" d="M 64.368 193.42 
L 64.368 108.076265 
" style="fill:none;stroke:#cccccc;stroke-linecap:square;stroke-width:0.8;"/>
     </g>
     <g id="line2d_31">
      <g>
       <use style="stroke:#000000;stroke-width:0.8;" x="64.368" xlink:href="#m8992544bc0" y="193.42"/>
      </g>
     </g>
     <g id="text_7">
      <!-- 0.0 -->
      <defs>
       <path d="M 10.6875 12.40625 
L 21 12.40625 
L 21 0 
L 10.6875 0 
z
" id="DejaVuSans-46"/>
      </defs>
      <g transform="translate(58.00675 202.99875)scale(0.08 -0.08)">
       <use xlink:href="#DejaVuSans-48"/>
       <use x="63.623047" xlink:href="#DejaVuSans-46"/>
       <use x="95.410156" xlink:href="#DejaVuSans-48"/>
      </g>
     </g>
    </g>
    <g id="xtick_11">
     <g id="line2d_32">
      <path clip-path="url(#p019addf22d)" d="M 125.861063 193.42 
L 125.861063 108.076265 
" style="fill:none;stroke:#cccccc;stroke-linecap:square;stroke-width:0.8;"/>
     </g>
     <g id="line2d_33">
      <g>
       <use style="stroke:#000000;stroke-width:0.8;" x="125.861063" xlink:href="#m8992544bc0" y="193.42"/>
      </g>
     </g>
     <g id="text_8">
      <!-- 2.5 -->
      <defs>
       <path d="M 10.796875 72.90625 
L 49.515625 72.90625 
L 49.515625 64.59375 
L 19.828125 64.59375 
L 19.828125 46.734375 
Q 21.96875 47.46875 24.109375 47.828125 
Q 26.265625 48.1875 28.421875 48.1875 
Q 40.625 48.1875 47.75 41.5 
Q 54.890625 34.8125 54.890625 23.390625 
Q 54.890625 11.625 47.5625 5.09375 
Q 40.234375 -1.421875 26.90625 -1.421875 
Q 22.3125 -1.421875 17.546875 -0.640625 
Q 12.796875 0.140625 7.71875 1.703125 
L 7.71875 11.625 
Q 12.109375 9.234375 16.796875 8.0625 
Q 21.484375 6.890625 26.703125 6.890625 
Q 35.15625 6.890625 40.078125 11.328125 
Q 45.015625 15.765625 45.015625 23.390625 
Q 45.015625 31 40.078125 35.4375 
Q 35.15625 39.890625 26.703125 39.890625 
Q 22.75 39.890625 18.8125 39.015625 
Q 14.890625 38.140625 10.796875 36.28125 
z
" id="DejaVuSans-53"/>
      </defs>
      <g transform="translate(119.499813 202.99875)scale(0.08 -0.08)">
       <use xlink:href="#DejaVuSans-50"/>
       <use x="63.623047" xlink:href="#DejaVuSans-46"/>
       <use x="95.410156" xlink:href="#DejaVuSans-53"/>
      </g>
     </g>
    </g>
    <g id="xtick_12">
     <g id="line2d_34">
      <path clip-path="url(#p019addf22d)" d="M 187.354125 193.42 
L 187.354125 108.076265 
" style="fill:none;stroke:#cccccc;stroke-linecap:square;stroke-width:0.8;"/>
     </g>
     <g id="line2d_35">
      <g>
       <use style="stroke:#000000;stroke-width:0.8;" x="187.354125" xlink:href="#m8992544bc0" y="193.42"/>
      </g>
     </g>
     <g id="text_9">
      <!-- 5.0 -->
      <g transform="translate(180.992875 202.99875)scale(0.08 -0.08)">
       <use xlink:href="#DejaVuSans-53"/>
       <use x="63.623047" xlink:href="#DejaVuSans-46"/>
       <use x="95.410156" xlink:href="#DejaVuSans-48"/>
      </g>
     </g>
    </g>
    <g id="xtick_13">
     <g id="line2d_36">
      <path clip-path="url(#p019addf22d)" d="M 248.847188 193.42 
L 248.847188 108.076265 
" style="fill:none;stroke:#cccccc;stroke-linecap:square;stroke-width:0.8;"/>
     </g>
     <g id="line2d_37">
      <g>
       <use style="stroke:#000000;stroke-width:0.8;" x="248.847188" xlink:href="#m8992544bc0" y="193.42"/>
      </g>
     </g>
     <g id="text_10">
      <!-- 7.5 -->
      <defs>
       <path d="M 8.203125 72.90625 
L 55.078125 72.90625 
L 55.078125 68.703125 
L 28.609375 0 
L 18.3125 0 
L 43.21875 64.59375 
L 8.203125 64.59375 
z
" id="DejaVuSans-55"/>
      </defs>
      <g transform="translate(242.485938 202.99875)scale(0.08 -0.08)">
       <use xlink:href="#DejaVuSans-55"/>
       <use x="63.623047" xlink:href="#DejaVuSans-46"/>
       <use x="95.410156" xlink:href="#DejaVuSans-53"/>
      </g>
     </g>
    </g>
    <g id="xtick_14">
     <g id="line2d_38">
      <path clip-path="url(#p019addf22d)" d="M 310.34025 193.42 
L 310.34025 108.076265 
" style="fill:none;stroke:#cccccc;stroke-linecap:square;stroke-width:0.8;"/>
     </g>
     <g id="line2d_39">
      <g>
       <use style="stroke:#000000;stroke-width:0.8;" x="310.34025" xlink:href="#m8992544bc0" y="193.42"/>
      </g>
     </g>
     <g id="text_11">
      <!-- 10.0 -->
      <g transform="translate(301.434 202.99875)scale(0.08 -0.08)">
       <use xlink:href="#DejaVuSans-49"/>
       <use x="63.623047" xlink:href="#DejaVuSans-48"/>
       <use x="127.246094" xlink:href="#DejaVuSans-46"/>
       <use x="159.033203" xlink:href="#DejaVuSans-48"/>
      </g>
     </g>
    </g>
    <g id="xtick_15">
     <g id="line2d_40">
      <path clip-path="url(#p019addf22d)" d="M 371.833313 193.42 
L 371.833313 108.076265 
" style="fill:none;stroke:#cccccc;stroke-linecap:square;stroke-width:0.8;"/>
     </g>
     <g id="line2d_41">
      <g>
       <use style="stroke:#000000;stroke-width:0.8;" x="371.833313" xlink:href="#m8992544bc0" y="193.42"/>
      </g>
     </g>
     <g id="text_12">
      <!-- 12.5 -->
      <g transform="translate(362.927063 202.99875)scale(0.08 -0.08)">
       <use xlink:href="#DejaVuSans-49"/>
       <use x="63.623047" xlink:href="#DejaVuSans-50"/>
       <use x="127.246094" xlink:href="#DejaVuSans-46"/>
       <use x="159.033203" xlink:href="#DejaVuSans-53"/>
      </g>
     </g>
    </g>
    <g id="xtick_16">
     <g id="line2d_42">
      <path clip-path="url(#p019addf22d)" d="M 433.326375 193.42 
L 433.326375 108.076265 
" style="fill:none;stroke:#cccccc;stroke-linecap:square;stroke-width:0.8;"/>
     </g>
     <g id="line2d_43">
      <g>
       <use style="stroke:#000000;stroke-width:0.8;" x="433.326375" xlink:href="#m8992544bc0" y="193.42"/>
      </g>
     </g>
     <g id="text_13">
      <!-- 15.0 -->
      <g transform="translate(424.420125 202.99875)scale(0.08 -0.08)">
       <use xlink:href="#DejaVuSans-49"/>
       <use x="63.623047" xlink:href="#DejaVuSans-53"/>
       <use x="127.246094" xlink:href="#DejaVuSans-46"/>
       <use x="159.033203" xlink:href="#DejaVuSans-48"/>
      </g>
     </g>
    </g>
    <g id="xtick_17">
     <g id="line2d_44">
      <path clip-path="url(#p019addf22d)" d="M 494.819438 193.42 
L 494.819438 108.076265 
" style="fill:none;stroke:#cccccc;stroke-linecap:square;stroke-width:0.8;"/>
     </g>
     <g id="line2d_45">
      <g>
       <use style="stroke:#000000;stroke-width:0.8;" x="494.819438" xlink:href="#m8992544bc0" y="193.42"/>
      </g>
     </g>
     <g id="text_14">
      <!-- 17.5 -->
      <g transform="translate(485.913188 202.99875)scale(0.08 -0.08)">
       <use xlink:href="#DejaVuSans-49"/>
       <use x="63.623047" xlink:href="#DejaVuSans-55"/>
       <use x="127.246094" xlink:href="#DejaVuSans-46"/>
       <use x="159.033203" xlink:href="#DejaVuSans-53"/>
      </g>
     </g>
    </g>
    <g id="xtick_18">
     <g id="line2d_46">
      <path clip-path="url(#p019addf22d)" d="M 556.3125 193.42 
L 556.3125 108.076265 
" style="fill:none;stroke:#cccccc;stroke-linecap:square;stroke-width:0.8;"/>
     </g>
     <g id="line2d_47">
      <g>
       <use style="stroke:#000000;stroke-width:0.8;" x="556.3125" xlink:href="#m8992544bc0" y="193.42"/>
      </g>
     </g>
     <g id="text_15">
      <!-- 20.0 -->
      <g transform="translate(547.40625 202.99875)scale(0.08 -0.08)">
       <use xlink:href="#DejaVuSans-50"/>
       <use x="63.623047" xlink:href="#DejaVuSans-48"/>
       <use x="127.246094" xlink:href="#DejaVuSans-46"/>
       <use x="159.033203" xlink:href="#DejaVuSans-48"/>
      </g>
     </g>
    </g>
   </g>
   <g id="matplotlib.axis_4">
    <g id="ytick_6">
     <g id="line2d_48">
      <path clip-path="url(#p019addf22d)" d="M 64.368 179.562174 
L 556.3125 179.562174 
" style="fill:none;stroke:#cccccc;stroke-linecap:square;stroke-width:0.8;"/>
     </g>
     <g id="line2d_49">
      <g>
       <use style="stroke:#000000;stroke-width:0.8;" x="64.368" xlink:href="#m4606d0bf90" y="179.562174"/>
      </g>
     </g>
     <g id="text_16">
      <!-- −2 -->
      <g transform="translate(49.07425 182.601549)scale(0.08 -0.08)">
       <use xlink:href="#DejaVuSans-8722"/>
       <use x="83.789062" xlink:href="#DejaVuSans-50"/>
      </g>
     </g>
    </g>
    <g id="ytick_7">
     <g id="line2d_50">
      <path clip-path="url(#p019addf22d)" d="M 64.368 150.748204 
L 556.3125 150.748204 
" style="fill:none;stroke:#cccccc;stroke-linecap:square;stroke-width:0.8;"/>
     </g>
     <g id="line2d_51">
      <g>
       <use style="stroke:#000000;stroke-width:0.8;" x="64.368" xlink:href="#m4606d0bf90" y="150.748204"/>
      </g>
     </g>
     <g id="text_17">
      <!-- 0 -->
      <g transform="translate(55.778 153.787579)scale(0.08 -0.08)">
       <use xlink:href="#DejaVuSans-48"/>
      </g>
     </g>
    </g>
    <g id="ytick_8">
     <g id="line2d_52">
      <path clip-path="url(#p019addf22d)" d="M 64.368 121.934235 
L 556.3125 121.934235 
" style="fill:none;stroke:#cccccc;stroke-linecap:square;stroke-width:0.8;"/>
     </g>
     <g id="line2d_53">
      <g>
       <use style="stroke:#000000;stroke-width:0.8;" x="64.368" xlink:href="#m4606d0bf90" y="121.934235"/>
      </g>
     </g>
     <g id="text_18">
      <!-- 2 -->
      <g transform="translate(55.778 124.97361)scale(0.08 -0.08)">
       <use xlink:href="#DejaVuSans-50"/>
      </g>
     </g>
    </g>
    <g id="text_19">
     <!-- x1 -->
     <g transform="translate(5.33466 149.084382)scale(0.08 -0.08)">
      <use xlink:href="#DejaVuSans-120"/>
      <use x="59.179688" xlink:href="#DejaVuSans-49"/>
     </g>
    </g>
   </g>
   <g id="patch_8">
    <path d="M 64.368 193.42 
L 64.368 108.076265 
" style="fill:none;stroke:#000000;stroke-linecap:square;stroke-linejoin:miter;stroke-width:0.5;"/>
   </g>
   <g id="patch_9">
    <path d="M 556.3125 193.42 
L 556.3125 108.076265 
" style="fill:none;stroke:#000000;stroke-linecap:square;stroke-linejoin:miter;stroke-width:0.5;"/>
   </g>
   <g id="patch_10">
    <path d="M 64.368 193.42 
L 556.3125 193.42 
" style="fill:none;stroke:#000000;stroke-linecap:square;stroke-linejoin:miter;stroke-width:0.5;"/>
   </g>
   <g id="patch_11">
    <path d="M 64.368 108.076265 
L 556.3125 108.076265 
" style="fill:none;stroke:#000000;stroke-linecap:square;stroke-linejoin:miter;stroke-width:0.5;"/>
   </g>
   <g id="line2d_54">
    <path clip-path="url(#p019addf22d)" d="M 64.368 150.748204 
L 65.843833 152.352076 
L 67.565639 153.886319 
L 69.287445 155.128965 
L 71.255223 156.27543 
L 73.468973 157.310283 
L 76.174668 158.328583 
L 79.864252 159.466332 
L 93.146753 163.346911 
L 96.836337 164.76937 
L 100.033976 166.254154 
L 102.739671 167.749599 
L 105.199393 169.345028 
L 107.659116 171.207563 
L 110.118839 173.376391 
L 112.578561 175.877011 
L 115.038284 178.699771 
L 118.973839 183.633299 
L 121.433562 186.558205 
L 122.909395 188.006107 
L 124.139257 188.904671 
L 125.123146 189.352152 
L 125.861063 189.497086 
L 126.598979 189.456747 
L 127.336896 189.214853 
L 128.074813 188.758008 
L 128.812729 188.078286 
L 129.796619 186.821709 
L 130.780507 185.176431 
L 132.010369 182.624378 
L 133.486202 178.97797 
L 135.945925 172.123415 
L 138.897592 164.024025 
L 140.619397 159.892173 
L 142.341203 156.353904 
L 143.817037 153.801433 
L 145.29287 151.660272 
L 146.768704 149.881643 
L 148.244537 148.41083 
L 149.966343 147.012776 
L 151.688149 145.88481 
L 153.655927 144.844942 
L 156.115649 143.810247 
L 159.067316 142.81739 
L 163.494817 141.583921 
L 173.087735 138.959444 
L 177.023291 137.625703 
L 180.466902 136.220777 
L 183.418569 134.776765 
L 186.124264 133.204963 
L 188.583986 131.524677 
L 191.043709 129.562157 
L 193.257459 127.524433 
L 195.717182 124.941837 
L 198.422876 121.744207 
L 204.572182 114.281965 
L 205.802044 113.167585 
L 206.785933 112.497372 
L 207.769822 112.078417 
L 208.507739 111.958551 
L 209.245655 112.026696 
L 209.983572 112.299132 
L 210.721489 112.788105 
L 211.459406 113.501251 
L 212.443295 114.802778 
L 213.427183 116.490988 
L 214.657045 119.090728 
L 216.132878 122.780789 
L 218.592601 129.666608 
L 221.298295 137.112224 
L 223.020101 141.292511 
L 224.741907 144.882242 
L 226.217741 147.47645 
L 227.693574 149.654806 
L 229.169408 151.465221 
L 230.645241 152.962356 
L 232.367047 154.384801 
L 234.088853 155.531338 
L 236.056631 156.586707 
L 238.516353 157.634296 
L 241.46802 158.635956 
L 245.895521 159.874035 
L 255.488438 162.48873 
L 259.423994 163.812299 
L 262.867606 165.204893 
L 265.819273 166.635074 
L 268.524968 168.191173 
L 270.98469 169.854459 
L 273.444412 171.797385 
L 275.658163 173.81566 
L 278.117885 176.376501 
L 280.82358 179.554538 
L 287.218859 187.300885 
L 288.44872 188.396537 
L 289.432609 189.047012 
L 290.416498 189.441763 
L 291.154415 189.540739 
L 291.892331 189.449687 
L 292.630248 189.152759 
L 293.368165 188.637998 
L 294.106082 187.898631 
L 295.089971 186.562671 
L 296.07386 184.842045 
L 297.303721 182.207584 
L 298.779554 178.487701 
L 301.485249 170.885135 
L 304.190944 163.537184 
L 305.91275 159.465208 
L 307.634555 155.993226 
L 309.110389 153.495861 
L 310.586222 151.404703 
L 312.062056 149.669489 
L 313.537889 148.235194 
L 315.259695 146.87153 
L 317.227473 145.630555 
L 319.441223 144.530683 
L 321.900946 143.560372 
L 325.098585 142.541467 
L 330.509974 141.089013 
L 337.64317 139.132025 
L 341.824698 137.743192 
L 345.268309 136.362628 
L 348.219976 134.946047 
L 350.925671 133.405364 
L 353.385394 131.75879 
L 355.845116 129.835458 
L 358.058867 127.836633 
L 360.518589 125.29769 
L 363.224284 122.139679 
L 369.865535 114.11153 
L 371.095396 113.034752 
L 372.079285 112.404591 
L 373.063174 112.034043 
L 373.801091 111.956101 
L 374.539007 112.070061 
L 375.276924 112.391625 
L 376.014841 112.932031 
L 376.99873 114.002758 
L 377.982619 115.470974 
L 378.966508 117.313771 
L 380.196369 120.077031 
L 381.918175 124.579357 
L 387.575537 139.976966 
L 389.297342 143.767098 
L 390.773176 146.530531 
L 392.249009 148.863814 
L 393.724843 150.809389 
L 395.200676 152.420409 
L 396.922482 153.950171 
L 398.644288 155.179807 
L 400.612066 156.305828 
L 402.825816 157.314649 
L 405.531511 158.300144 
L 409.221094 159.393893 
L 422.749568 163.178003 
L 426.439152 164.54514 
L 429.636791 165.971489 
L 432.342486 167.407577 
L 435.048181 169.105872 
L 437.507903 170.923313 
L 439.967626 173.042437 
L 442.427348 175.492056 
L 444.887071 178.269867 
L 448.330682 182.559115 
L 451.528322 186.445399 
L 453.004155 187.924564 
L 454.234016 188.859865 
L 455.217905 189.343796 
L 456.201794 189.539155 
L 456.939711 189.468416 
L 457.677628 189.193243 
L 458.415545 188.701388 
L 459.153461 187.985361 
L 460.13735 186.679944 
L 461.121239 184.987988 
L 462.351101 182.384358 
L 463.826934 178.690839 
L 466.286656 171.80286 
L 468.992351 164.359707 
L 470.714157 160.182373 
L 472.435963 156.595956 
L 473.911796 154.004543 
L 475.38763 151.828708 
L 476.863463 150.020492 
L 478.339297 148.525207 
L 480.061103 147.104491 
L 481.782908 145.959308 
L 483.750686 144.905091 
L 486.210409 143.858496 
L 489.162076 142.857556 
L 493.589576 141.619939 
L 503.182494 139.004884 
L 507.11805 137.680781 
L 510.561662 136.287482 
L 513.513329 134.85658 
L 516.219023 133.299617 
L 518.678746 131.635322 
L 521.138468 129.691388 
L 523.352219 127.672105 
L 525.811941 125.109967 
L 528.517636 121.930777 
L 534.912914 114.186591 
L 536.142775 113.092957 
L 537.126665 112.444642 
L 538.110554 112.05234 
L 538.84847 111.955525 
L 539.586387 112.049027 
L 540.324304 112.348548 
L 541.06222 112.865903 
L 541.800137 113.60815 
L 542.784026 114.947712 
L 543.767915 116.671652 
L 544.997776 119.309715 
L 546.47361 123.032624 
L 549.179305 130.63663 
L 551.639027 137.355471 
L 553.360833 141.505331 
L 555.082639 145.061566 
L 556.3125 147.230091 
L 556.3125 147.230091 
" style="fill:none;stroke:#0000ff;stroke-linecap:square;stroke-width:0.9;"/>
   </g>
  </g>
 </g>
 <defs>
  <clipPath id="p5fcf996f40">
   <rect height="85.343735" width="491.9445" x="64.368" y="10.8"/>
  </clipPath>
  <clipPath id="p019addf22d">
   <rect height="85.343735" width="491.9445" x="64.368" y="108.076265"/>
  </clipPath>
 </defs>
</svg>
