<?xml version="1.0" encoding="utf-8" standalone="no"?>
<!DOCTYPE svg PUBLIC "-//W3C//DTD SVG 1.1//EN"
  "http://www.w3.org/Graphics/SVG/1.1/DTD/svg11.dtd">
<!-- Created with matplotlib (https://matplotlib.org/) -->
<svg height="216pt" version="1.1" viewBox="0 0 576 216" width="576pt" xmlns="http://www.w3.org/2000/svg" xmlns:xlink="http://www.w3.org/1999/xlink">
 <defs>
  <style type="text/css">
*{stroke-linecap:butt;stroke-linejoin:round;}
  </style>
 </defs>
 <g id="figure_1">
  <g id="patch_1">
   <path d="M 0 216 
L 576 216 
L 576 0 
L 0 0 
z
" style="fill:#ffffff;"/>
  </g>
  <g id="axes_1">
   <g id="patch_2">
    <path d="M 64.368 96.056273 
L 558.855 96.056273 
L 558.855 10.8 
L 64.368 10.8 
z
" style="fill:#ffffff;"/>
   </g>
   <g id="matplotlib.axis_1">
    <g id="xtick_1">
     <g id="line2d_1">
      <path clip-path="url(#p7c8b265387)" d="M 64.368 96.056273 
L 64.368 10.8 
" style="fill:none;stroke:#cccccc;stroke-linecap:square;stroke-width:0.8;"/>
     </g>
     <g id="line2d_2">
      <defs>
       <path d="M 0 0 
L 0 -3.5 
" id="mca4e1f4538" style="stroke:#000000;stroke-width:0.8;"/>
      </defs>
      <g>
       <use style="stroke:#000000;stroke-width:0.8;" x="64.368" xlink:href="#mca4e1f4538" y="96.056273"/>
      </g>
     </g>
    </g>
    <g id="xtick_2">
     <g id="line2d_3">
      <path clip-path="url(#p7c8b265387)" d="M 146.7825 96.056273 
L 146.7825 10.8 
" style="fill:none;stroke:#cccccc;stroke-linecap:square;stroke-width:0.8;"/>
     </g>
     <g id="line2d_4">
      <g>
       <use style="stroke:#000000;stroke-width:0.8;" x="146.7825" xlink:href="#mca4e1f4538" y="96.056273"/>
      </g>
     </g>
    </g>
    <g id="xtick_3">
     <g id="line2d_5">
      <path clip-path="url(#p7c8b265387)" d="M 229.197 96.056273 
L 229.197 10.8 
" style="fill:none;stroke:#cccccc;stroke-linecap:square;stroke-width:0.8;"/>
     </g>
     <g id="line2d_6">
      <g>
       <use style="stroke:#000000;stroke-width:0.8;" x="229.197" xlink:href="#mca4e1f4538" y="96.056273"/>
      </g>
     </g>
    </g>
    <g id="xtick_4">
     <g id="line2d_7">
      <path clip-path="url(#p7c8b265387)" d="M 311.6115 96.056273 
L 311.6115 10.8 
" style="fill:none;stroke:#cccccc;stroke-linecap:square;stroke-width:0.8;"/>
     </g>
     <g id="line2d_8">
      <g>
       <use style="stroke:#000000;stroke-width:0.8;" x="311.6115" xlink:href="#mca4e1f4538" y="96.056273"/>
      </g>
     </g>
    </g>
    <g id="xtick_5">
     <g id="line2d_9">
      <path clip-path="url(#p7c8b265387)" d="M 394.026 96.056273 
L 394.026 10.8 
" style="fill:none;stroke:#cccccc;stroke-linecap:square;stroke-width:0.8;"/>
     </g>
     <g id="line2d_10">
      <g>
       <use style="stroke:#000000;stroke-width:0.8;" x="394.026" xlink:href="#mca4e1f4538" y="96.056273"/>
      </g>
     </g>
    </g>
    <g id="xtick_6">
     <g id="line2d_11">
      <path clip-path="url(#p7c8b265387)" d="M 476.4405 96.056273 
L 476.4405 10.8 
" style="fill:none;stroke:#cccccc;stroke-linecap:square;stroke-width:0.8;"/>
     </g>
     <g id="line2d_12">
      <g>
       <use style="stroke:#000000;stroke-width:0.8;" x="476.4405" xlink:href="#mca4e1f4538" y="96.056273"/>
      </g>
     </g>
    </g>
    <g id="xtick_7">
     <g id="line2d_13">
      <path clip-path="url(#p7c8b265387)" d="M 558.855 96.056273 
L 558.855 10.8 
" style="fill:none;stroke:#cccccc;stroke-linecap:square;stroke-width:0.8;"/>
     </g>
     <g id="line2d_14">
      <g>
       <use style="stroke:#000000;stroke-width:0.8;" x="558.855" xlink:href="#mca4e1f4538" y="96.056273"/>
      </g>
     </g>
    </g>
   </g>
   <g id="matplotlib.axis_2">
    <g id="ytick_1">
     <g id="line2d_15">
      <path clip-path="url(#p7c8b265387)" d="M 64.368 91.846975 
L 558.855 91.846975 
" style="fill:none;stroke:#cccccc;stroke-linecap:square;stroke-width:0.8;"/>
     </g>
     <g id="line2d_16">
      <defs>
       <path d="M 0 0 
L 3.5 0 
" id="m8589a57778" style="stroke:#000000;stroke-width:0.8;"/>
      </defs>
      <g>
       <use style="stroke:#000000;stroke-width:0.8;" x="64.368" xlink:href="#m8589a57778" y="91.846975"/>
      </g>
     </g>
     <g id="text_1">
      <!-- 0.00 -->
      <defs>
       <path d="M 31.78125 66.40625 
Q 24.171875 66.40625 20.328125 58.90625 
Q 16.5 51.421875 16.5 36.375 
Q 16.5 21.390625 20.328125 13.890625 
Q 24.171875 6.390625 31.78125 6.390625 
Q 39.453125 6.390625 43.28125 13.890625 
Q 47.125 21.390625 47.125 36.375 
Q 47.125 51.421875 43.28125 58.90625 
Q 39.453125 66.40625 31.78125 66.40625 
z
M 31.78125 74.21875 
Q 44.046875 74.21875 50.515625 64.515625 
Q 56.984375 54.828125 56.984375 36.375 
Q 56.984375 17.96875 50.515625 8.265625 
Q 44.046875 -1.421875 31.78125 -1.421875 
Q 19.53125 -1.421875 13.0625 8.265625 
Q 6.59375 17.96875 6.59375 36.375 
Q 6.59375 54.828125 13.0625 64.515625 
Q 19.53125 74.21875 31.78125 74.21875 
z
" id="DejaVuSans-48"/>
       <path d="M 10.6875 12.40625 
L 21 12.40625 
L 21 0 
L 10.6875 0 
z
" id="DejaVuSans-46"/>
      </defs>
      <g transform="translate(43.0555 94.88635)scale(0.08 -0.08)">
       <use xlink:href="#DejaVuSans-48"/>
       <use x="63.623047" xlink:href="#DejaVuSans-46"/>
       <use x="95.410156" xlink:href="#DejaVuSans-48"/>
       <use x="159.033203" xlink:href="#DejaVuSans-48"/>
      </g>
     </g>
    </g>
    <g id="ytick_2">
     <g id="line2d_17">
      <path clip-path="url(#p7c8b265387)" d="M 64.368 72.554052 
L 558.855 72.554052 
" style="fill:none;stroke:#cccccc;stroke-linecap:square;stroke-width:0.8;"/>
     </g>
     <g id="line2d_18">
      <g>
       <use style="stroke:#000000;stroke-width:0.8;" x="64.368" xlink:href="#m8589a57778" y="72.554052"/>
      </g>
     </g>
     <g id="text_2">
      <!-- 0.25 -->
      <defs>
       <path d="M 19.1875 8.296875 
L 53.609375 8.296875 
L 53.609375 0 
L 7.328125 0 
L 7.328125 8.296875 
Q 12.9375 14.109375 22.625 23.890625 
Q 32.328125 33.6875 34.8125 36.53125 
Q 39.546875 41.84375 41.421875 45.53125 
Q 43.3125 49.21875 43.3125 52.78125 
Q 43.3125 58.59375 39.234375 62.25 
Q 35.15625 65.921875 28.609375 65.921875 
Q 23.96875 65.921875 18.8125 64.3125 
Q 13.671875 62.703125 7.8125 59.421875 
L 7.8125 69.390625 
Q 13.765625 71.78125 18.9375 73 
Q 24.125 74.21875 28.421875 74.21875 
Q 39.75 74.21875 46.484375 68.546875 
Q 53.21875 62.890625 53.21875 53.421875 
Q 53.21875 48.921875 51.53125 44.890625 
Q 49.859375 40.875 45.40625 35.40625 
Q 44.1875 33.984375 37.640625 27.21875 
Q 31.109375 20.453125 19.1875 8.296875 
z
" id="DejaVuSans-50"/>
       <path d="M 10.796875 72.90625 
L 49.515625 72.90625 
L 49.515625 64.59375 
L 19.828125 64.59375 
L 19.828125 46.734375 
Q 21.96875 47.46875 24.109375 47.828125 
Q 26.265625 48.1875 28.421875 48.1875 
Q 40.625 48.1875 47.75 41.5 
Q 54.890625 34.8125 54.890625 23.390625 
Q 54.890625 11.625 47.5625 5.09375 
Q 40.234375 -1.421875 26.90625 -1.421875 
Q 22.3125 -1.421875 17.546875 -0.640625 
Q 12.796875 0.140625 7.71875 1.703125 
L 7.71875 11.625 
Q 12.109375 9.234375 16.796875 8.0625 
Q 21.484375 6.890625 26.703125 6.890625 
Q 35.15625 6.890625 40.078125 11.328125 
Q 45.015625 15.765625 45.015625 23.390625 
Q 45.015625 31 40.078125 35.4375 
Q 35.15625 39.890625 26.703125 39.890625 
Q 22.75 39.890625 18.8125 39.015625 
Q 14.890625 38.140625 10.796875 36.28125 
z
" id="DejaVuSans-53"/>
      </defs>
      <g transform="translate(43.0555 75.593427)scale(0.08 -0.08)">
       <use xlink:href="#DejaVuSans-48"/>
       <use x="63.623047" xlink:href="#DejaVuSans-46"/>
       <use x="95.410156" xlink:href="#DejaVuSans-50"/>
       <use x="159.033203" xlink:href="#DejaVuSans-53"/>
      </g>
     </g>
    </g>
    <g id="ytick_3">
     <g id="line2d_19">
      <path clip-path="url(#p7c8b265387)" d="M 64.368 53.26113 
L 558.855 53.26113 
" style="fill:none;stroke:#cccccc;stroke-linecap:square;stroke-width:0.8;"/>
     </g>
     <g id="line2d_20">
      <g>
       <use style="stroke:#000000;stroke-width:0.8;" x="64.368" xlink:href="#m8589a57778" y="53.26113"/>
      </g>
     </g>
     <g id="text_3">
      <!-- 0.50 -->
      <g transform="translate(43.0555 56.300505)scale(0.08 -0.08)">
       <use xlink:href="#DejaVuSans-48"/>
       <use x="63.623047" xlink:href="#DejaVuSans-46"/>
       <use x="95.410156" xlink:href="#DejaVuSans-53"/>
       <use x="159.033203" xlink:href="#DejaVuSans-48"/>
      </g>
     </g>
    </g>
    <g id="ytick_4">
     <g id="line2d_21">
      <path clip-path="url(#p7c8b265387)" d="M 64.368 33.968208 
L 558.855 33.968208 
" style="fill:none;stroke:#cccccc;stroke-linecap:square;stroke-width:0.8;"/>
     </g>
     <g id="line2d_22">
      <g>
       <use style="stroke:#000000;stroke-width:0.8;" x="64.368" xlink:href="#m8589a57778" y="33.968208"/>
      </g>
     </g>
     <g id="text_4">
      <!-- 0.75 -->
      <defs>
       <path d="M 8.203125 72.90625 
L 55.078125 72.90625 
L 55.078125 68.703125 
L 28.609375 0 
L 18.3125 0 
L 43.21875 64.59375 
L 8.203125 64.59375 
z
" id="DejaVuSans-55"/>
      </defs>
      <g transform="translate(43.0555 37.007583)scale(0.08 -0.08)">
       <use xlink:href="#DejaVuSans-48"/>
       <use x="63.623047" xlink:href="#DejaVuSans-46"/>
       <use x="95.410156" xlink:href="#DejaVuSans-55"/>
       <use x="159.033203" xlink:href="#DejaVuSans-53"/>
      </g>
     </g>
    </g>
    <g id="ytick_5">
     <g id="line2d_23">
      <path clip-path="url(#p7c8b265387)" d="M 64.368 14.675285 
L 558.855 14.675285 
" style="fill:none;stroke:#cccccc;stroke-linecap:square;stroke-width:0.8;"/>
     </g>
     <g id="line2d_24">
      <g>
       <use style="stroke:#000000;stroke-width:0.8;" x="64.368" xlink:href="#m8589a57778" y="14.675285"/>
      </g>
     </g>
     <g id="text_5">
      <!-- 1.00 -->
      <defs>
       <path d="M 12.40625 8.296875 
L 28.515625 8.296875 
L 28.515625 63.921875 
L 10.984375 60.40625 
L 10.984375 69.390625 
L 28.421875 72.90625 
L 38.28125 72.90625 
L 38.28125 8.296875 
L 54.390625 8.296875 
L 54.390625 0 
L 12.40625 0 
z
" id="DejaVuSans-49"/>
      </defs>
      <g transform="translate(43.0555 17.71466)scale(0.08 -0.08)">
       <use xlink:href="#DejaVuSans-49"/>
       <use x="63.623047" xlink:href="#DejaVuSans-46"/>
       <use x="95.410156" xlink:href="#DejaVuSans-48"/>
       <use x="159.033203" xlink:href="#DejaVuSans-48"/>
      </g>
     </g>
    </g>
    <g id="text_6">
     <!-- h -->
     <defs>
      <path d="M 54.890625 33.015625 
L 54.890625 0 
L 45.90625 0 
L 45.90625 32.71875 
Q 45.90625 40.484375 42.875 44.328125 
Q 39.84375 48.1875 33.796875 48.1875 
Q 26.515625 48.1875 22.3125 43.546875 
Q 18.109375 38.921875 18.109375 30.90625 
L 18.109375 0 
L 9.078125 0 
L 9.078125 75.984375 
L 18.109375 75.984375 
L 18.109375 46.1875 
Q 21.34375 51.125 25.703125 53.5625 
Q 30.078125 56 35.796875 56 
Q 45.21875 56 50.046875 50.171875 
Q 54.890625 44.34375 54.890625 33.015625 
z
" id="DejaVuSans-104"/>
     </defs>
     <g transform="translate(5.02956 51.764386)scale(0.08 -0.08)">
      <use xlink:href="#DejaVuSans-104"/>
     </g>
    </g>
   </g>
   <g id="line2d_25">
    <path clip-path="url(#p7c8b265387)" d="M 139.035537 96.056273 
L 139.035537 10.8 
" style="fill:none;stroke:#bfbf00;stroke-linecap:square;"/>
   </g>
   <g id="line2d_26">
    <path clip-path="url(#p7c8b265387)" d="M 243.866781 96.056273 
L 243.866781 10.8 
" style="fill:none;stroke:#bfbf00;stroke-linecap:square;"/>
   </g>
   <g id="line2d_27">
    <path clip-path="url(#p7c8b265387)" d="M 317.710173 96.056273 
L 317.710173 10.8 
" style="fill:none;stroke:#bfbf00;stroke-linecap:square;"/>
   </g>
   <g id="line2d_28">
    <path clip-path="url(#p7c8b265387)" d="M 369.796137 96.056273 
L 369.796137 10.8 
" style="fill:none;stroke:#bfbf00;stroke-linecap:square;"/>
   </g>
   <g id="line2d_29">
    <path clip-path="url(#p7c8b265387)" d="M 406.717833 96.056273 
L 406.717833 10.8 
" style="fill:none;stroke:#bfbf00;stroke-linecap:square;"/>
   </g>
   <g id="line2d_30">
    <path clip-path="url(#p7c8b265387)" d="M 433.090473 96.056273 
L 433.090473 10.8 
" style="fill:none;stroke:#bfbf00;stroke-linecap:square;"/>
   </g>
   <g id="line2d_31">
    <path clip-path="url(#p7c8b265387)" d="M 452.045808 96.056273 
L 452.045808 10.8 
" style="fill:none;stroke:#bfbf00;stroke-linecap:square;"/>
   </g>
   <g id="line2d_32">
    <path clip-path="url(#p7c8b265387)" d="M 465.726615 96.056273 
L 465.726615 10.8 
" style="fill:none;stroke:#bfbf00;stroke-linecap:square;"/>
   </g>
   <g id="line2d_33">
    <path clip-path="url(#p7c8b265387)" d="M 475.781184 96.056273 
L 475.781184 10.8 
" style="fill:none;stroke:#bfbf00;stroke-linecap:square;"/>
   </g>
   <g id="line2d_34">
    <path clip-path="url(#p7c8b265387)" d="M 483.363318 96.056273 
L 483.363318 10.8 
" style="fill:none;stroke:#bfbf00;stroke-linecap:square;"/>
   </g>
   <g id="line2d_35">
    <path clip-path="url(#p7c8b265387)" d="M 489.132333 96.056273 
L 489.132333 10.8 
" style="fill:none;stroke:#bfbf00;stroke-linecap:square;"/>
   </g>
   <g id="line2d_36">
    <path clip-path="url(#p7c8b265387)" d="M 493.582716 96.056273 
L 493.582716 10.8 
" style="fill:none;stroke:#bfbf00;stroke-linecap:square;"/>
   </g>
   <g id="patch_3">
    <path d="M 64.368 96.056273 
L 64.368 10.8 
" style="fill:none;stroke:#000000;stroke-linecap:square;stroke-linejoin:miter;stroke-width:0.5;"/>
   </g>
   <g id="patch_4">
    <path d="M 558.855 96.056273 
L 558.855 10.8 
" style="fill:none;stroke:#000000;stroke-linecap:square;stroke-linejoin:miter;stroke-width:0.5;"/>
   </g>
   <g id="patch_5">
    <path d="M 64.368 96.056273 
L 558.855 96.056273 
" style="fill:none;stroke:#000000;stroke-linecap:square;stroke-linejoin:miter;stroke-width:0.5;"/>
   </g>
   <g id="patch_6">
    <path d="M 64.368 10.8 
L 558.855 10.8 
" style="fill:none;stroke:#000000;stroke-linecap:square;stroke-linejoin:miter;stroke-width:0.5;"/>
   </g>
   <g id="line2d_37">
    <path clip-path="url(#p7c8b265387)" d="M 64.368 14.675285 
L 67.170093 14.778232 
L 69.972186 15.099961 
L 72.774279 15.640549 
L 75.576372 16.399841 
L 78.543294 17.442353 
L 81.510216 18.73004 
L 84.477138 20.263133 
L 87.44406 22.0414 
L 90.575811 24.184612 
L 93.707562 26.601167 
L 96.839313 29.290986 
L 100.135893 32.417597 
L 103.432473 35.847029 
L 106.893882 39.773911 
L 110.355291 44.034637 
L 113.981529 48.856324 
L 117.607767 54.044345 
L 121.398834 59.860081 
L 125.189901 66.076261 
L 129.145797 72.989687 
L 133.266522 80.654842 
L 137.387247 88.793168 
L 139.035537 92.180988 
L 139.035537 92.180988 
" style="fill:none;stroke:#0000ff;stroke-linecap:square;stroke-width:0.9;"/>
   </g>
   <g id="line2d_38">
    <path clip-path="url(#p7c8b265387)" d="M 139.035537 91.846975 
L 142.826604 86.517089 
L 146.452842 81.793664 
L 150.07908 77.436705 
L 153.540489 73.619562 
L 157.001898 70.136263 
L 160.298478 67.129191 
L 163.595058 64.425018 
L 166.726809 62.136569 
L 169.85856 60.121307 
L 172.990311 58.379388 
L 175.957233 56.981268 
L 178.924155 55.828478 
L 181.891077 54.920861 
L 184.69317 54.28898 
L 187.495263 53.87588 
L 190.297356 53.681484 
L 193.099449 53.705948 
L 195.901542 53.949193 
L 198.703635 54.41122 
L 201.505728 55.092028 
L 204.47265 56.051427 
L 207.439572 57.256 
L 210.406494 58.705901 
L 213.373416 60.401132 
L 216.505167 62.4566 
L 219.636918 64.78541 
L 222.768669 67.387485 
L 226.065249 70.421721 
L 229.361829 73.758857 
L 232.823238 77.588656 
L 236.284647 81.752378 
L 239.910885 86.472491 
L 243.537123 91.558992 
L 243.866781 92.039569 
L 243.866781 92.039569 
" style="fill:none;stroke:#0000ff;stroke-linecap:square;stroke-width:0.9;"/>
   </g>
   <g id="line2d_39">
    <path clip-path="url(#p7c8b265387)" d="M 243.866781 91.846975 
L 247.32819 88.457015 
L 250.62477 85.538876 
L 253.92135 82.923535 
L 257.053101 80.719512 
L 260.184852 78.788753 
L 263.151774 77.211673 
L 266.118696 75.879921 
L 269.085618 74.79342 
L 272.05254 73.952249 
L 274.854633 73.383031 
L 277.656726 73.032517 
L 280.458819 72.900862 
L 283.260912 72.987989 
L 286.063005 73.293975 
L 288.865098 73.818665 
L 291.667191 74.562137 
L 294.634113 75.587826 
L 297.601035 76.858844 
L 300.567957 78.375113 
L 303.534879 80.136634 
L 306.66663 82.262174 
L 309.798381 84.661017 
L 312.930132 87.333141 
L 316.226712 90.441146 
L 317.710173 91.938548 
L 317.710173 91.938548 
" style="fill:none;stroke:#0000ff;stroke-linecap:square;stroke-width:0.9;"/>
   </g>
   <g id="line2d_40">
    <path clip-path="url(#p7c8b265387)" d="M 317.710173 91.846975 
L 320.841924 89.713262 
L 323.973675 87.852846 
L 326.940597 86.342442 
L 329.907519 85.077328 
L 332.874441 84.057496 
L 335.841363 83.282924 
L 338.643456 82.776677 
L 341.445549 82.489136 
L 344.247642 82.420453 
L 347.049735 82.570552 
L 349.851828 82.939432 
L 352.653921 83.527018 
L 355.456014 84.333493 
L 358.422936 85.425843 
L 361.389858 86.763483 
L 364.35678 88.346405 
L 367.323702 90.17461 
L 369.796137 91.885491 
L 369.796137 91.885491 
" style="fill:none;stroke:#0000ff;stroke-linecap:square;stroke-width:0.9;"/>
   </g>
   <g id="line2d_41">
    <path clip-path="url(#p7c8b265387)" d="M 369.796137 91.846975 
L 372.763059 90.449357 
L 375.729981 89.297021 
L 378.696903 88.389976 
L 381.498996 87.758542 
L 384.301089 87.345897 
L 387.103182 87.152042 
L 389.905275 87.176969 
L 392.707368 87.420692 
L 395.509461 87.883205 
L 398.311554 88.5645 
L 401.113647 89.464592 
L 404.080569 90.6561 
L 406.717833 91.921132 
L 406.717833 91.921132 
" style="fill:none;stroke:#0000ff;stroke-linecap:square;stroke-width:0.9;"/>
   </g>
   <g id="line2d_42">
    <path clip-path="url(#p7c8b265387)" d="M 406.717833 91.846975 
L 409.684755 90.885508 
L 412.486848 90.202678 
L 415.288941 89.738644 
L 418.091034 89.493393 
L 420.893127 89.46693 
L 423.69522 89.659258 
L 426.497313 90.070367 
L 429.299406 90.700273 
L 432.101499 91.548967 
L 433.090473 91.900743 
L 433.090473 91.900743 
" style="fill:none;stroke:#0000ff;stroke-linecap:square;stroke-width:0.9;"/>
   </g>
   <g id="line2d_43">
    <path clip-path="url(#p7c8b265387)" d="M 433.090473 91.846975 
L 433.255302 91.804079 
L 433.420131 91.761942 
L 433.58496 91.72056 
L 433.749789 91.679936 
L 433.914618 91.640069 
L 434.079447 91.600959 
L 434.244276 91.562606 
L 434.409105 91.525011 
L 434.573934 91.488171 
L 434.738763 91.45209 
L 434.903592 91.416765 
L 435.068421 91.382197 
L 435.23325 91.348387 
L 435.398079 91.315334 
L 435.562908 91.283036 
L 435.727737 91.251497 
L 435.892566 91.220715 
L 436.057395 91.19069 
L 436.222224 91.161422 
L 436.387053 91.132911 
L 436.551882 91.105156 
L 436.716711 91.078159 
L 436.88154 91.051921 
L 437.046369 91.026439 
L 437.211198 91.001713 
L 437.376027 90.977744 
L 437.540856 90.95453 
L 437.705685 90.932074 
L 437.870514 90.910381 
L 438.035343 90.889436 
L 438.200172 90.869256 
L 438.365001 90.849824 
L 438.52983 90.831156 
L 438.694659 90.813245 
L 438.859488 90.796089 
L 439.024317 90.77969 
L 439.189146 90.764048 
L 439.353975 90.749161 
L 439.518804 90.735039 
L 439.683633 90.721665 
L 439.848462 90.709055 
L 440.013291 90.697201 
L 440.17812 90.686096 
L 440.342949 90.675755 
L 440.507778 90.666171 
L 440.672607 90.657342 
L 440.837436 90.649278 
L 441.002265 90.641962 
L 441.167094 90.635402 
L 441.331923 90.629607 
L 441.496752 90.62456 
L 441.661581 90.620277 
L 441.82641 90.61675 
L 441.991239 90.61398 
L 442.156068 90.611965 
L 442.320897 90.610707 
L 442.485726 90.610206 
L 442.650555 90.61046 
L 442.815384 90.611479 
L 442.980213 90.613246 
L 443.145042 90.615778 
L 443.309871 90.619057 
L 443.4747 90.623101 
L 443.639529 90.627901 
L 443.804358 90.633458 
L 443.969187 90.63977 
L 444.134016 90.646839 
L 444.298845 90.654664 
L 444.463674 90.663254 
L 444.628503 90.672591 
L 444.793332 90.682693 
L 444.958161 90.693551 
L 445.12299 90.705158 
L 445.287819 90.717529 
L 445.452648 90.730655 
L 445.617477 90.744539 
L 445.782306 90.759178 
L 445.947135 90.774582 
L 446.111964 90.790734 
L 446.276793 90.80765 
L 446.441622 90.825314 
L 446.606451 90.843743 
L 446.77128 90.862928 
L 446.936109 90.882869 
L 447.100938 90.903566 
L 447.265767 90.92502 
L 447.430596 90.94723 
L 447.595425 90.970196 
L 447.760254 90.993919 
L 447.925083 91.018405 
L 448.089912 91.043648 
L 448.254741 91.06964 
L 448.41957 91.096395 
L 448.584399 91.123906 
L 448.749228 91.152174 
L 448.914057 91.181199 
L 449.078886 91.210981 
L 449.243715 91.24152 
L 449.408544 91.272816 
L 449.573373 91.304869 
L 449.738202 91.337679 
L 449.903031 91.371247 
L 450.06786 91.405571 
L 450.232689 91.440652 
L 450.397518 91.47649 
L 450.562347 91.513086 
L 450.727176 91.550439 
L 450.892005 91.588548 
L 451.056834 91.627415 
L 451.221663 91.667038 
L 451.386492 91.707419 
L 451.551321 91.748557 
L 451.71615 91.790452 
L 451.880979 91.833104 
L 452.045808 91.876513 
" style="fill:none;stroke:#0000ff;stroke-linecap:square;stroke-width:0.9;"/>
   </g>
   <g id="line2d_44">
    <path clip-path="url(#p7c8b265387)" d="M 452.045808 91.846975 
L 452.210637 91.816059 
L 452.375466 91.785899 
L 452.540295 91.756497 
L 452.705124 91.727853 
L 452.869953 91.699964 
L 453.034782 91.672834 
L 453.199611 91.64646 
L 453.36444 91.620842 
L 453.529269 91.595983 
L 453.694098 91.57188 
L 453.858927 91.548535 
L 454.023756 91.525946 
L 454.188585 91.504114 
L 454.353414 91.48304 
L 454.518243 91.462722 
L 454.683072 91.443162 
L 454.847901 91.424359 
L 455.01273 91.406313 
L 455.177559 91.389023 
L 455.342388 91.372491 
L 455.507217 91.356716 
L 455.672046 91.341698 
L 455.836875 91.327437 
L 456.001704 91.313933 
L 456.166533 91.301186 
L 456.331362 91.289196 
L 456.496191 91.277963 
L 456.66102 91.267488 
L 456.825849 91.257769 
L 456.990678 91.248808 
L 457.155507 91.240603 
L 457.320336 91.233155 
L 457.485165 91.226465 
L 457.649994 91.220531 
L 457.814823 91.215355 
L 457.979652 91.210936 
L 458.144481 91.207273 
L 458.30931 91.204368 
L 458.474139 91.20222 
L 458.638968 91.200829 
L 458.803797 91.200195 
L 458.968626 91.200318 
L 459.133455 91.201198 
L 459.298284 91.202835 
L 459.463113 91.20523 
L 459.627942 91.208381 
L 459.792771 91.212289 
L 459.9576 91.216954 
L 460.122429 91.222377 
L 460.287258 91.228556 
L 460.452087 91.235493 
L 460.616916 91.243187 
L 460.781745 91.251637 
L 460.946574 91.260845 
L 461.111403 91.270809 
L 461.276232 91.281531 
L 461.441061 91.29301 
L 461.60589 91.305246 
L 461.770719 91.318239 
L 461.935548 91.331989 
L 462.100377 91.346496 
L 462.265206 91.36176 
L 462.430035 91.377781 
L 462.594864 91.39456 
L 462.759693 91.412095 
L 462.924522 91.430387 
L 463.089351 91.449436 
L 463.25418 91.469242 
L 463.419009 91.489806 
L 463.583838 91.511127 
L 463.748667 91.533205 
L 463.913496 91.556039 
L 464.078325 91.579631 
L 464.243154 91.60398 
L 464.407983 91.629085 
L 464.572812 91.654948 
L 464.737641 91.681568 
L 464.90247 91.708945 
L 465.067299 91.737079 
L 465.232128 91.76597 
L 465.396957 91.795618 
L 465.561786 91.826024 
L 465.726615 91.857186 
" style="fill:none;stroke:#0000ff;stroke-linecap:square;stroke-width:0.9;"/>
   </g>
   <g id="line2d_45">
    <path clip-path="url(#p7c8b265387)" d="M 465.726615 91.846975 
L 465.891444 91.824631 
L 466.056273 91.803045 
L 466.221102 91.782215 
L 466.385931 91.762143 
L 466.55076 91.742828 
L 466.715589 91.724269 
L 466.880418 91.706468 
L 467.045247 91.689424 
L 467.210076 91.673137 
L 467.374905 91.657607 
L 467.539734 91.642834 
L 467.704563 91.628818 
L 467.869392 91.615559 
L 468.034221 91.603057 
L 468.19905 91.591313 
L 468.363879 91.580325 
L 468.528708 91.570094 
L 468.693537 91.560621 
L 468.858366 91.551904 
L 469.023195 91.543945 
L 469.188024 91.536742 
L 469.352853 91.530297 
L 469.517682 91.524609 
L 469.682511 91.519677 
L 469.84734 91.515503 
L 470.012169 91.512086 
L 470.176998 91.509426 
L 470.341827 91.507523 
L 470.506656 91.506377 
L 470.671485 91.505988 
L 470.836314 91.506356 
L 471.001143 91.507481 
L 471.165972 91.509363 
L 471.330801 91.512003 
L 471.49563 91.515399 
L 471.660459 91.519552 
L 471.825288 91.524463 
L 471.990117 91.53013 
L 472.154946 91.536555 
L 472.319775 91.543736 
L 472.484604 91.551675 
L 472.649433 91.560371 
L 472.814262 91.569823 
L 472.979091 91.580033 
L 473.14392 91.591 
L 473.308749 91.602724 
L 473.473578 91.615205 
L 473.638407 91.628443 
L 473.803236 91.642438 
L 473.968065 91.65719 
L 474.132894 91.672699 
L 474.297723 91.688966 
L 474.462552 91.705989 
L 474.627381 91.723769 
L 474.79221 91.742307 
L 474.957039 91.761601 
L 475.121868 91.781653 
L 475.286697 91.802462 
L 475.451526 91.824027 
L 475.616355 91.84635 
L 475.781184 91.86943 
" style="fill:none;stroke:#0000ff;stroke-linecap:square;stroke-width:0.9;"/>
   </g>
   <g id="line2d_46">
    <path clip-path="url(#p7c8b265387)" d="M 475.781184 91.846975 
L 475.946013 91.830289 
L 476.110842 91.81436 
L 476.275671 91.799189 
L 476.4405 91.784774 
L 476.605329 91.771117 
L 476.770158 91.758216 
L 476.934987 91.746073 
L 477.099816 91.734686 
L 477.264645 91.724057 
L 477.429474 91.714185 
L 477.594303 91.705069 
L 477.759132 91.696711 
L 477.923961 91.68911 
L 478.08879 91.682266 
L 478.253619 91.676179 
L 478.418448 91.670849 
L 478.583277 91.666276 
L 478.748106 91.66246 
L 478.912935 91.659402 
L 479.077764 91.6571 
L 479.242593 91.655555 
L 479.407422 91.654768 
L 479.572251 91.654737 
L 479.73708 91.655463 
L 479.901909 91.656947 
L 480.066738 91.659187 
L 480.231567 91.662186 
L 480.396396 91.66594 
L 480.561225 91.670451 
L 480.726054 91.675721 
L 480.890883 91.681746 
L 481.055712 91.68853 
L 481.220541 91.696069 
L 481.38537 91.704366 
L 481.550199 91.713421 
L 481.715028 91.723232 
L 481.879857 91.7338 
L 482.044686 91.745125 
L 482.209515 91.757207 
L 482.374344 91.770047 
L 482.539173 91.783643 
L 482.704002 91.797997 
L 482.868831 91.813107 
L 483.03366 91.828975 
L 483.198489 91.845599 
L 483.363318 91.862981 
" style="fill:none;stroke:#0000ff;stroke-linecap:square;stroke-width:0.9;"/>
   </g>
   <g id="line2d_47">
    <path clip-path="url(#p7c8b265387)" d="M 483.363318 91.846975 
L 483.528147 91.834278 
L 483.692976 91.822338 
L 483.857805 91.811155 
L 484.022634 91.800729 
L 484.187463 91.79106 
L 484.352292 91.782148 
L 484.517121 91.773993 
L 484.68195 91.766595 
L 484.846779 91.759954 
L 485.011608 91.754071 
L 485.176437 91.748944 
L 485.341266 91.744575 
L 485.506095 91.740962 
L 485.670924 91.738107 
L 485.835753 91.736009 
L 486.000582 91.734668 
L 486.165411 91.734083 
L 486.33024 91.734256 
L 486.495069 91.735186 
L 486.659898 91.736872 
L 486.824727 91.739316 
L 486.989556 91.742517 
L 487.154385 91.746476 
L 487.319214 91.751191 
L 487.484043 91.756663 
L 487.648872 91.762892 
L 487.813701 91.769879 
L 487.97853 91.777622 
L 488.143359 91.786122 
L 488.308188 91.79538 
L 488.473017 91.805394 
L 488.637846 91.816166 
L 488.802675 91.827695 
L 488.967504 91.83998 
L 489.132333 91.853023 
" style="fill:none;stroke:#0000ff;stroke-linecap:square;stroke-width:0.9;"/>
   </g>
   <g id="line2d_48">
    <path clip-path="url(#p7c8b265387)" d="M 489.132333 91.846975 
L 489.297162 91.837315 
L 489.461991 91.828412 
L 489.62682 91.820266 
L 489.791649 91.812878 
L 489.956478 91.806246 
L 490.121307 91.800371 
L 490.286136 91.795254 
L 490.450965 91.790893 
L 490.615794 91.78729 
L 490.780623 91.784444 
L 490.945452 91.782354 
L 491.110281 91.781022 
L 491.27511 91.780447 
L 491.439939 91.780629 
L 491.604768 91.781568 
L 491.769597 91.783264 
L 491.934426 91.785717 
L 492.099255 91.788927 
L 492.264084 91.792894 
L 492.428913 91.797618 
L 492.593742 91.803099 
L 492.758571 91.809338 
L 492.9234 91.816333 
L 493.088229 91.824085 
L 493.253058 91.832595 
L 493.417887 91.841861 
L 493.582716 91.851885 
" style="fill:none;stroke:#0000ff;stroke-linecap:square;stroke-width:0.9;"/>
   </g>
   <g id="line2d_49">
    <path clip-path="url(#p7c8b265387)" d="M 493.582716 91.846975 
L 558.855 91.846975 
L 558.855 91.846975 
" style="fill:none;stroke:#0000ff;stroke-linecap:square;stroke-width:0.9;"/>
   </g>
  </g>
  <g id="axes_2">
   <g id="patch_7">
    <path d="M 64.368 193.42 
L 558.855 193.42 
L 558.855 108.163727 
L 64.368 108.163727 
z
" style="fill:#ffffff;"/>
   </g>
   <g id="matplotlib.axis_3">
    <g id="xtick_8">
     <g id="line2d_50">
      <path clip-path="url(#p36d86ec4d7)" d="M 64.368 193.42 
L 64.368 108.163727 
" style="fill:none;stroke:#cccccc;stroke-linecap:square;stroke-width:0.8;"/>
     </g>
     <g id="line2d_51">
      <g>
       <use style="stroke:#000000;stroke-width:0.8;" x="64.368" xlink:href="#mca4e1f4538" y="193.42"/>
      </g>
     </g>
     <g id="text_7">
      <!-- 0.0 -->
      <g transform="translate(58.00675 202.99875)scale(0.08 -0.08)">
       <use xlink:href="#DejaVuSans-48"/>
       <use x="63.623047" xlink:href="#DejaVuSans-46"/>
       <use x="95.410156" xlink:href="#DejaVuSans-48"/>
      </g>
     </g>
    </g>
    <g id="xtick_9">
     <g id="line2d_52">
      <path clip-path="url(#p36d86ec4d7)" d="M 146.7825 193.42 
L 146.7825 108.163727 
" style="fill:none;stroke:#cccccc;stroke-linecap:square;stroke-width:0.8;"/>
     </g>
     <g id="line2d_53">
      <g>
       <use style="stroke:#000000;stroke-width:0.8;" x="146.7825" xlink:href="#mca4e1f4538" y="193.42"/>
      </g>
     </g>
     <g id="text_8">
      <!-- 0.5 -->
      <g transform="translate(140.42125 202.99875)scale(0.08 -0.08)">
       <use xlink:href="#DejaVuSans-48"/>
       <use x="63.623047" xlink:href="#DejaVuSans-46"/>
       <use x="95.410156" xlink:href="#DejaVuSans-53"/>
      </g>
     </g>
    </g>
    <g id="xtick_10">
     <g id="line2d_54">
      <path clip-path="url(#p36d86ec4d7)" d="M 229.197 193.42 
L 229.197 108.163727 
" style="fill:none;stroke:#cccccc;stroke-linecap:square;stroke-width:0.8;"/>
     </g>
     <g id="line2d_55">
      <g>
       <use style="stroke:#000000;stroke-width:0.8;" x="229.197" xlink:href="#mca4e1f4538" y="193.42"/>
      </g>
     </g>
     <g id="text_9">
      <!-- 1.0 -->
      <g transform="translate(222.83575 202.99875)scale(0.08 -0.08)">
       <use xlink:href="#DejaVuSans-49"/>
       <use x="63.623047" xlink:href="#DejaVuSans-46"/>
       <use x="95.410156" xlink:href="#DejaVuSans-48"/>
      </g>
     </g>
    </g>
    <g id="xtick_11">
     <g id="line2d_56">
      <path clip-path="url(#p36d86ec4d7)" d="M 311.6115 193.42 
L 311.6115 108.163727 
" style="fill:none;stroke:#cccccc;stroke-linecap:square;stroke-width:0.8;"/>
     </g>
     <g id="line2d_57">
      <g>
       <use style="stroke:#000000;stroke-width:0.8;" x="311.6115" xlink:href="#mca4e1f4538" y="193.42"/>
      </g>
     </g>
     <g id="text_10">
      <!-- 1.5 -->
      <g transform="translate(305.25025 202.99875)scale(0.08 -0.08)">
       <use xlink:href="#DejaVuSans-49"/>
       <use x="63.623047" xlink:href="#DejaVuSans-46"/>
       <use x="95.410156" xlink:href="#DejaVuSans-53"/>
      </g>
     </g>
    </g>
    <g id="xtick_12">
     <g id="line2d_58">
      <path clip-path="url(#p36d86ec4d7)" d="M 394.026 193.42 
L 394.026 108.163727 
" style="fill:none;stroke:#cccccc;stroke-linecap:square;stroke-width:0.8;"/>
     </g>
     <g id="line2d_59">
      <g>
       <use style="stroke:#000000;stroke-width:0.8;" x="394.026" xlink:href="#mca4e1f4538" y="193.42"/>
      </g>
     </g>
     <g id="text_11">
      <!-- 2.0 -->
      <g transform="translate(387.66475 202.99875)scale(0.08 -0.08)">
       <use xlink:href="#DejaVuSans-50"/>
       <use x="63.623047" xlink:href="#DejaVuSans-46"/>
       <use x="95.410156" xlink:href="#DejaVuSans-48"/>
      </g>
     </g>
    </g>
    <g id="xtick_13">
     <g id="line2d_60">
      <path clip-path="url(#p36d86ec4d7)" d="M 476.4405 193.42 
L 476.4405 108.163727 
" style="fill:none;stroke:#cccccc;stroke-linecap:square;stroke-width:0.8;"/>
     </g>
     <g id="line2d_61">
      <g>
       <use style="stroke:#000000;stroke-width:0.8;" x="476.4405" xlink:href="#mca4e1f4538" y="193.42"/>
      </g>
     </g>
     <g id="text_12">
      <!-- 2.5 -->
      <g transform="translate(470.07925 202.99875)scale(0.08 -0.08)">
       <use xlink:href="#DejaVuSans-50"/>
       <use x="63.623047" xlink:href="#DejaVuSans-46"/>
       <use x="95.410156" xlink:href="#DejaVuSans-53"/>
      </g>
     </g>
    </g>
    <g id="xtick_14">
     <g id="line2d_62">
      <path clip-path="url(#p36d86ec4d7)" d="M 558.855 193.42 
L 558.855 108.163727 
" style="fill:none;stroke:#cccccc;stroke-linecap:square;stroke-width:0.8;"/>
     </g>
     <g id="line2d_63">
      <g>
       <use style="stroke:#000000;stroke-width:0.8;" x="558.855" xlink:href="#mca4e1f4538" y="193.42"/>
      </g>
     </g>
     <g id="text_13">
      <!-- 3.0 -->
      <defs>
       <path d="M 40.578125 39.3125 
Q 47.65625 37.796875 51.625 33 
Q 55.609375 28.21875 55.609375 21.1875 
Q 55.609375 10.40625 48.1875 4.484375 
Q 40.765625 -1.421875 27.09375 -1.421875 
Q 22.515625 -1.421875 17.65625 -0.515625 
Q 12.796875 0.390625 7.625 2.203125 
L 7.625 11.71875 
Q 11.71875 9.328125 16.59375 8.109375 
Q 21.484375 6.890625 26.8125 6.890625 
Q 36.078125 6.890625 40.9375 10.546875 
Q 45.796875 14.203125 45.796875 21.1875 
Q 45.796875 27.640625 41.28125 31.265625 
Q 36.765625 34.90625 28.71875 34.90625 
L 20.21875 34.90625 
L 20.21875 43.015625 
L 29.109375 43.015625 
Q 36.375 43.015625 40.234375 45.921875 
Q 44.09375 48.828125 44.09375 54.296875 
Q 44.09375 59.90625 40.109375 62.90625 
Q 36.140625 65.921875 28.71875 65.921875 
Q 24.65625 65.921875 20.015625 65.03125 
Q 15.375 64.15625 9.8125 62.3125 
L 9.8125 71.09375 
Q 15.4375 72.65625 20.34375 73.4375 
Q 25.25 74.21875 29.59375 74.21875 
Q 40.828125 74.21875 47.359375 69.109375 
Q 53.90625 64.015625 53.90625 55.328125 
Q 53.90625 49.265625 50.4375 45.09375 
Q 46.96875 40.921875 40.578125 39.3125 
z
" id="DejaVuSans-51"/>
      </defs>
      <g transform="translate(552.49375 202.99875)scale(0.08 -0.08)">
       <use xlink:href="#DejaVuSans-51"/>
       <use x="63.623047" xlink:href="#DejaVuSans-46"/>
       <use x="95.410156" xlink:href="#DejaVuSans-48"/>
      </g>
     </g>
    </g>
   </g>
   <g id="matplotlib.axis_4">
    <g id="ytick_6">
     <g id="line2d_64">
      <path clip-path="url(#p36d86ec4d7)" d="M 64.368 184.990305 
L 558.855 184.990305 
" style="fill:none;stroke:#cccccc;stroke-linecap:square;stroke-width:0.8;"/>
     </g>
     <g id="line2d_65">
      <g>
       <use style="stroke:#000000;stroke-width:0.8;" x="64.368" xlink:href="#m8589a57778" y="184.990305"/>
      </g>
     </g>
     <g id="text_14">
      <!-- −4 -->
      <defs>
       <path d="M 10.59375 35.5 
L 73.1875 35.5 
L 73.1875 27.203125 
L 10.59375 27.203125 
z
" id="DejaVuSans-8722"/>
       <path d="M 37.796875 64.3125 
L 12.890625 25.390625 
L 37.796875 25.390625 
z
M 35.203125 72.90625 
L 47.609375 72.90625 
L 47.609375 25.390625 
L 58.015625 25.390625 
L 58.015625 17.1875 
L 47.609375 17.1875 
L 47.609375 0 
L 37.796875 0 
L 37.796875 17.1875 
L 4.890625 17.1875 
L 4.890625 26.703125 
z
" id="DejaVuSans-52"/>
      </defs>
      <g transform="translate(49.07425 188.02968)scale(0.08 -0.08)">
       <use xlink:href="#DejaVuSans-8722"/>
       <use x="83.789062" xlink:href="#DejaVuSans-52"/>
      </g>
     </g>
    </g>
    <g id="ytick_7">
     <g id="line2d_66">
      <path clip-path="url(#p36d86ec4d7)" d="M 64.368 164.471712 
L 558.855 164.471712 
" style="fill:none;stroke:#cccccc;stroke-linecap:square;stroke-width:0.8;"/>
     </g>
     <g id="line2d_67">
      <g>
       <use style="stroke:#000000;stroke-width:0.8;" x="64.368" xlink:href="#m8589a57778" y="164.471712"/>
      </g>
     </g>
     <g id="text_15">
      <!-- −2 -->
      <g transform="translate(49.07425 167.511087)scale(0.08 -0.08)">
       <use xlink:href="#DejaVuSans-8722"/>
       <use x="83.789062" xlink:href="#DejaVuSans-50"/>
      </g>
     </g>
    </g>
    <g id="ytick_8">
     <g id="line2d_68">
      <path clip-path="url(#p36d86ec4d7)" d="M 64.368 143.953119 
L 558.855 143.953119 
" style="fill:none;stroke:#cccccc;stroke-linecap:square;stroke-width:0.8;"/>
     </g>
     <g id="line2d_69">
      <g>
       <use style="stroke:#000000;stroke-width:0.8;" x="64.368" xlink:href="#m8589a57778" y="143.953119"/>
      </g>
     </g>
     <g id="text_16">
      <!-- 0 -->
      <g transform="translate(55.778 146.992494)scale(0.08 -0.08)">
       <use xlink:href="#DejaVuSans-48"/>
      </g>
     </g>
    </g>
    <g id="ytick_9">
     <g id="line2d_70">
      <path clip-path="url(#p36d86ec4d7)" d="M 64.368 123.434526 
L 558.855 123.434526 
" style="fill:none;stroke:#cccccc;stroke-linecap:square;stroke-width:0.8;"/>
     </g>
     <g id="line2d_71">
      <g>
       <use style="stroke:#000000;stroke-width:0.8;" x="64.368" xlink:href="#m8589a57778" y="123.434526"/>
      </g>
     </g>
     <g id="text_17">
      <!-- 2 -->
      <g transform="translate(55.778 126.473901)scale(0.08 -0.08)">
       <use xlink:href="#DejaVuSans-50"/>
      </g>
     </g>
    </g>
    <g id="text_18">
     <!-- v -->
     <defs>
      <path d="M 2.984375 54.6875 
L 12.5 54.6875 
L 29.59375 8.796875 
L 46.6875 54.6875 
L 56.203125 54.6875 
L 35.6875 0 
L 23.484375 0 
z
" id="DejaVuSans-118"/>
     </defs>
     <g transform="translate(5.02956 149.128114)scale(0.08 -0.08)">
      <use xlink:href="#DejaVuSans-118"/>
     </g>
    </g>
   </g>
   <g id="line2d_72">
    <path clip-path="url(#p36d86ec4d7)" d="M 139.035537 193.42 
L 139.035537 108.163727 
" style="fill:none;stroke:#bfbf00;stroke-linecap:square;"/>
   </g>
   <g id="line2d_73">
    <path clip-path="url(#p36d86ec4d7)" d="M 243.866781 193.42 
L 243.866781 108.163727 
" style="fill:none;stroke:#bfbf00;stroke-linecap:square;"/>
   </g>
   <g id="line2d_74">
    <path clip-path="url(#p36d86ec4d7)" d="M 317.710173 193.42 
L 317.710173 108.163727 
" style="fill:none;stroke:#bfbf00;stroke-linecap:square;"/>
   </g>
   <g id="line2d_75">
    <path clip-path="url(#p36d86ec4d7)" d="M 369.796137 193.42 
L 369.796137 108.163727 
" style="fill:none;stroke:#bfbf00;stroke-linecap:square;"/>
   </g>
   <g id="line2d_76">
    <path clip-path="url(#p36d86ec4d7)" d="M 406.717833 193.42 
L 406.717833 108.163727 
" style="fill:none;stroke:#bfbf00;stroke-linecap:square;"/>
   </g>
   <g id="line2d_77">
    <path clip-path="url(#p36d86ec4d7)" d="M 433.090473 193.42 
L 433.090473 108.163727 
" style="fill:none;stroke:#bfbf00;stroke-linecap:square;"/>
   </g>
   <g id="line2d_78">
    <path clip-path="url(#p36d86ec4d7)" d="M 452.045808 193.42 
L 452.045808 108.163727 
" style="fill:none;stroke:#bfbf00;stroke-linecap:square;"/>
   </g>
   <g id="line2d_79">
    <path clip-path="url(#p36d86ec4d7)" d="M 465.726615 193.42 
L 465.726615 108.163727 
" style="fill:none;stroke:#bfbf00;stroke-linecap:square;"/>
   </g>
   <g id="line2d_80">
    <path clip-path="url(#p36d86ec4d7)" d="M 475.781184 193.42 
L 475.781184 108.163727 
" style="fill:none;stroke:#bfbf00;stroke-linecap:square;"/>
   </g>
   <g id="line2d_81">
    <path clip-path="url(#p36d86ec4d7)" d="M 483.363318 193.42 
L 483.363318 108.163727 
" style="fill:none;stroke:#bfbf00;stroke-linecap:square;"/>
   </g>
   <g id="line2d_82">
    <path clip-path="url(#p36d86ec4d7)" d="M 489.132333 193.42 
L 489.132333 108.163727 
" style="fill:none;stroke:#bfbf00;stroke-linecap:square;"/>
   </g>
   <g id="line2d_83">
    <path clip-path="url(#p36d86ec4d7)" d="M 493.582716 193.42 
L 493.582716 108.163727 
" style="fill:none;stroke:#bfbf00;stroke-linecap:square;"/>
   </g>
   <g id="patch_8">
    <path d="M 64.368 193.42 
L 64.368 108.163727 
" style="fill:none;stroke:#000000;stroke-linecap:square;stroke-linejoin:miter;stroke-width:0.5;"/>
   </g>
   <g id="patch_9">
    <path d="M 558.855 193.42 
L 558.855 108.163727 
" style="fill:none;stroke:#000000;stroke-linecap:square;stroke-linejoin:miter;stroke-width:0.5;"/>
   </g>
   <g id="patch_10">
    <path d="M 64.368 193.42 
L 558.855 193.42 
" style="fill:none;stroke:#000000;stroke-linecap:square;stroke-linejoin:miter;stroke-width:0.5;"/>
   </g>
   <g id="patch_11">
    <path d="M 64.368 108.163727 
L 558.855 108.163727 
" style="fill:none;stroke:#000000;stroke-linecap:square;stroke-linejoin:miter;stroke-width:0.5;"/>
   </g>
   <g id="line2d_84">
    <path clip-path="url(#p36d86ec4d7)" d="M 64.368 143.953119 
L 139.035537 189.544715 
L 139.035537 189.544715 
" style="fill:none;stroke:#0000ff;stroke-linecap:square;stroke-width:0.9;"/>
   </g>
   <g id="line2d_85">
    <path clip-path="url(#p36d86ec4d7)" d="M 139.035537 112.039012 
L 243.866781 176.048405 
L 243.866781 176.048405 
" style="fill:none;stroke:#0000ff;stroke-linecap:square;stroke-width:0.9;"/>
   </g>
   <g id="line2d_86">
    <path clip-path="url(#p36d86ec4d7)" d="M 243.866781 121.486388 
L 317.710173 166.574765 
L 317.710173 166.574765 
" style="fill:none;stroke:#0000ff;stroke-linecap:square;stroke-width:0.9;"/>
   </g>
   <g id="line2d_87">
    <path clip-path="url(#p36d86ec4d7)" d="M 317.710173 128.117895 
L 369.796137 159.921304 
L 369.796137 159.921304 
" style="fill:none;stroke:#0000ff;stroke-linecap:square;stroke-width:0.9;"/>
   </g>
   <g id="line2d_88">
    <path clip-path="url(#p36d86ec4d7)" d="M 369.796137 132.775308 
L 406.717833 155.319496 
L 406.717833 155.319496 
" style="fill:none;stroke:#0000ff;stroke-linecap:square;stroke-width:0.9;"/>
   </g>
   <g id="line2d_89">
    <path clip-path="url(#p36d86ec4d7)" d="M 406.717833 135.996624 
L 433.090473 152.099616 
L 433.090473 152.099616 
" style="fill:none;stroke:#0000ff;stroke-linecap:square;stroke-width:0.9;"/>
   </g>
   <g id="line2d_90">
    <path clip-path="url(#p36d86ec4d7)" d="M 433.090473 138.250571 
L 433.255302 138.351215 
L 433.420131 138.451859 
L 433.58496 138.552502 
L 433.749789 138.653146 
L 433.914618 138.75379 
L 434.079447 138.854433 
L 434.244276 138.955077 
L 434.409105 139.055721 
L 434.573934 139.156364 
L 434.738763 139.257008 
L 434.903592 139.357652 
L 435.068421 139.458296 
L 435.23325 139.558939 
L 435.398079 139.659583 
L 435.562908 139.760227 
L 435.727737 139.86087 
L 435.892566 139.961514 
L 436.057395 140.062158 
L 436.222224 140.162801 
L 436.387053 140.263445 
L 436.551882 140.364089 
L 436.716711 140.464733 
L 436.88154 140.565376 
L 437.046369 140.66602 
L 437.211198 140.766664 
L 437.376027 140.867307 
L 437.540856 140.967951 
L 437.705685 141.068595 
L 437.870514 141.169238 
L 438.035343 141.269882 
L 438.200172 141.370526 
L 438.365001 141.47117 
L 438.52983 141.571813 
L 438.694659 141.672457 
L 438.859488 141.773101 
L 439.024317 141.873744 
L 439.189146 141.974388 
L 439.353975 142.075032 
L 439.518804 142.175675 
L 439.683633 142.276319 
L 439.848462 142.376963 
L 440.013291 142.477607 
L 440.17812 142.57825 
L 440.342949 142.678894 
L 440.507778 142.779538 
L 440.672607 142.880181 
L 440.837436 142.980828 
L 441.002265 143.081472 
L 441.167094 143.182115 
L 441.331923 143.282759 
L 441.496752 143.383403 
L 441.661581 143.484047 
L 441.82641 143.58469 
L 441.991239 143.685334 
L 442.156068 143.785978 
L 442.320897 143.886621 
L 442.485726 143.987265 
L 442.650555 144.087909 
L 442.815384 144.188552 
L 442.980213 144.289196 
L 443.145042 144.38984 
L 443.309871 144.490484 
L 443.4747 144.591127 
L 443.639529 144.691771 
L 443.804358 144.792415 
L 443.969187 144.893058 
L 444.134016 144.993699 
L 444.298845 145.094343 
L 444.463674 145.194986 
L 444.628503 145.29563 
L 444.793332 145.396274 
L 444.958161 145.496918 
L 445.12299 145.597561 
L 445.287819 145.698205 
L 445.452648 145.798849 
L 445.617477 145.899492 
L 445.782306 146.000136 
L 445.947135 146.10078 
L 446.111964 146.201423 
L 446.276793 146.302067 
L 446.441622 146.402711 
L 446.606451 146.503354 
L 446.77128 146.603998 
L 446.936109 146.704642 
L 447.100938 146.805286 
L 447.265767 146.905929 
L 447.430596 147.006573 
L 447.595425 147.107217 
L 447.760254 147.20786 
L 447.925083 147.308504 
L 448.089912 147.409148 
L 448.254741 147.509791 
L 448.41957 147.610435 
L 448.584399 147.711079 
L 448.749228 147.811723 
L 448.914057 147.912366 
L 449.078886 148.01301 
L 449.243715 148.113654 
L 449.408544 148.214297 
L 449.573373 148.314941 
L 449.738202 148.415585 
L 449.903031 148.516228 
L 450.06786 148.616872 
L 450.232689 148.717516 
L 450.397518 148.81816 
L 450.562347 148.918803 
L 450.727176 149.019447 
L 450.892005 149.120091 
L 451.056834 149.220734 
L 451.221663 149.321378 
L 451.386492 149.422022 
L 451.551321 149.522665 
L 451.71615 149.623309 
L 451.880979 149.723953 
L 452.045808 149.824597 
" style="fill:none;stroke:#0000ff;stroke-linecap:square;stroke-width:0.9;"/>
   </g>
   <g id="line2d_91">
    <path clip-path="url(#p36d86ec4d7)" d="M 452.045808 139.843081 
L 452.210637 139.943724 
L 452.375466 140.044368 
L 452.540295 140.145012 
L 452.705124 140.245656 
L 452.869953 140.346299 
L 453.034782 140.446943 
L 453.199611 140.547587 
L 453.36444 140.64823 
L 453.529269 140.748874 
L 453.694098 140.849518 
L 453.858927 140.950161 
L 454.023756 141.050805 
L 454.188585 141.151449 
L 454.353414 141.252093 
L 454.518243 141.352736 
L 454.683072 141.45338 
L 454.847901 141.554024 
L 455.01273 141.654667 
L 455.177559 141.755311 
L 455.342388 141.855955 
L 455.507217 141.956598 
L 455.672046 142.057242 
L 455.836875 142.157886 
L 456.001704 142.25853 
L 456.166533 142.359173 
L 456.331362 142.459817 
L 456.496191 142.560461 
L 456.66102 142.661104 
L 456.825849 142.761748 
L 456.990678 142.862392 
L 457.155507 142.963037 
L 457.320336 143.063681 
L 457.485165 143.164325 
L 457.649994 143.264969 
L 457.814823 143.365612 
L 457.979652 143.466256 
L 458.144481 143.5669 
L 458.30931 143.667543 
L 458.474139 143.768187 
L 458.638968 143.868831 
L 458.803797 143.969474 
L 458.968626 144.070118 
L 459.133455 144.170762 
L 459.298284 144.271406 
L 459.463113 144.372049 
L 459.627942 144.472693 
L 459.792771 144.573337 
L 459.9576 144.67398 
L 460.122429 144.774624 
L 460.287258 144.875268 
L 460.452087 144.975911 
L 460.616916 145.076553 
L 460.781745 145.177197 
L 460.946574 145.27784 
L 461.111403 145.378484 
L 461.276232 145.479128 
L 461.441061 145.579772 
L 461.60589 145.680415 
L 461.770719 145.781059 
L 461.935548 145.881703 
L 462.100377 145.982346 
L 462.265206 146.08299 
L 462.430035 146.183634 
L 462.594864 146.284277 
L 462.759693 146.384921 
L 462.924522 146.485565 
L 463.089351 146.586209 
L 463.25418 146.686852 
L 463.419009 146.787496 
L 463.583838 146.88814 
L 463.748667 146.988783 
L 463.913496 147.089427 
L 464.078325 147.190071 
L 464.243154 147.290714 
L 464.407983 147.391358 
L 464.572812 147.492002 
L 464.737641 147.592646 
L 464.90247 147.693289 
L 465.067299 147.793933 
L 465.232128 147.894577 
L 465.396957 147.99522 
L 465.561786 148.095864 
L 465.726615 148.196508 
" style="fill:none;stroke:#0000ff;stroke-linecap:square;stroke-width:0.9;"/>
   </g>
   <g id="line2d_92">
    <path clip-path="url(#p36d86ec4d7)" d="M 465.726615 140.982745 
L 465.891444 141.083389 
L 466.056273 141.184032 
L 466.221102 141.284676 
L 466.385931 141.38532 
L 466.55076 141.485963 
L 466.715589 141.586607 
L 466.880418 141.687251 
L 467.045247 141.787895 
L 467.210076 141.888538 
L 467.374905 141.989182 
L 467.539734 142.089826 
L 467.704563 142.190469 
L 467.869392 142.291113 
L 468.034221 142.391757 
L 468.19905 142.4924 
L 468.363879 142.593044 
L 468.528708 142.693688 
L 468.693537 142.794332 
L 468.858366 142.894975 
L 469.023195 142.99562 
L 469.188024 143.096264 
L 469.352853 143.196907 
L 469.517682 143.297551 
L 469.682511 143.398195 
L 469.84734 143.498838 
L 470.012169 143.599482 
L 470.176998 143.700126 
L 470.341827 143.80077 
L 470.506656 143.901413 
L 470.671485 144.002057 
L 470.836314 144.102701 
L 471.001143 144.203344 
L 471.165972 144.303988 
L 471.330801 144.404632 
L 471.49563 144.505275 
L 471.660459 144.605919 
L 471.825288 144.706563 
L 471.990117 144.807207 
L 472.154946 144.90785 
L 472.319775 145.008493 
L 472.484604 145.109137 
L 472.649433 145.20978 
L 472.814262 145.310424 
L 472.979091 145.411068 
L 473.14392 145.511711 
L 473.308749 145.612355 
L 473.473578 145.712999 
L 473.638407 145.813643 
L 473.803236 145.914286 
L 473.968065 146.01493 
L 474.132894 146.115574 
L 474.297723 146.216217 
L 474.462552 146.316861 
L 474.627381 146.417505 
L 474.79221 146.518148 
L 474.957039 146.618792 
L 475.121868 146.719436 
L 475.286697 146.820079 
L 475.451526 146.920723 
L 475.616355 147.021367 
L 475.781184 147.122011 
" style="fill:none;stroke:#0000ff;stroke-linecap:square;stroke-width:0.9;"/>
   </g>
   <g id="line2d_93">
    <path clip-path="url(#p36d86ec4d7)" d="M 475.781184 141.734895 
L 475.946013 141.835539 
L 476.110842 141.936182 
L 476.275671 142.036826 
L 476.4405 142.13747 
L 476.605329 142.238114 
L 476.770158 142.338757 
L 476.934987 142.439401 
L 477.099816 142.540045 
L 477.264645 142.640688 
L 477.429474 142.741332 
L 477.594303 142.841976 
L 477.759132 142.942619 
L 477.923961 143.043263 
L 478.08879 143.143907 
L 478.253619 143.24455 
L 478.418448 143.345194 
L 478.583277 143.445838 
L 478.748106 143.546482 
L 478.912935 143.647125 
L 479.077764 143.747769 
L 479.242593 143.848413 
L 479.407422 143.949056 
L 479.572251 144.0497 
L 479.73708 144.150344 
L 479.901909 144.250987 
L 480.066738 144.351631 
L 480.231567 144.452275 
L 480.396396 144.552919 
L 480.561225 144.653562 
L 480.726054 144.754206 
L 480.890883 144.85485 
L 481.055712 144.955493 
L 481.220541 145.056137 
L 481.38537 145.156781 
L 481.550199 145.257424 
L 481.715028 145.358068 
L 481.879857 145.458712 
L 482.044686 145.559356 
L 482.209515 145.659999 
L 482.374344 145.760643 
L 482.539173 145.861287 
L 482.704002 145.96193 
L 482.868831 146.062574 
L 483.03366 146.163218 
L 483.198489 146.263861 
L 483.363318 146.364505 
" style="fill:none;stroke:#0000ff;stroke-linecap:square;stroke-width:0.9;"/>
   </g>
   <g id="line2d_94">
    <path clip-path="url(#p36d86ec4d7)" d="M 483.363318 142.265147 
L 483.528147 142.36579 
L 483.692976 142.466434 
L 483.857805 142.567078 
L 484.022634 142.667722 
L 484.187463 142.768365 
L 484.352292 142.869009 
L 484.517121 142.969655 
L 484.68195 143.070298 
L 484.846779 143.170942 
L 485.011608 143.271586 
L 485.176437 143.372229 
L 485.341266 143.472873 
L 485.506095 143.573517 
L 485.670924 143.674161 
L 485.835753 143.774804 
L 486.000582 143.875448 
L 486.165411 143.976092 
L 486.33024 144.076735 
L 486.495069 144.177379 
L 486.659898 144.278023 
L 486.824727 144.378666 
L 486.989556 144.47931 
L 487.154385 144.579954 
L 487.319214 144.680598 
L 487.484043 144.781241 
L 487.648872 144.881885 
L 487.813701 144.982527 
L 487.97853 145.08317 
L 488.143359 145.183814 
L 488.308188 145.284458 
L 488.473017 145.385101 
L 488.637846 145.485745 
L 488.802675 145.586389 
L 488.967504 145.687033 
L 489.132333 145.787676 
" style="fill:none;stroke:#0000ff;stroke-linecap:square;stroke-width:0.9;"/>
   </g>
   <g id="line2d_95">
    <path clip-path="url(#p36d86ec4d7)" d="M 489.132333 142.668932 
L 489.297162 142.769576 
L 489.461991 142.87022 
L 489.62682 142.970858 
L 489.791649 143.071502 
L 489.956478 143.172146 
L 490.121307 143.272789 
L 490.286136 143.373433 
L 490.450965 143.474077 
L 490.615794 143.57472 
L 490.780623 143.675364 
L 490.945452 143.776008 
L 491.110281 143.876652 
L 491.27511 143.977296 
L 491.439939 144.077939 
L 491.604768 144.178583 
L 491.769597 144.279226 
L 491.934426 144.37987 
L 492.099255 144.480514 
L 492.264084 144.581157 
L 492.428913 144.681801 
L 492.593742 144.782445 
L 492.758571 144.883088 
L 492.9234 144.983737 
L 493.088229 145.084381 
L 493.253058 145.185025 
L 493.417887 145.285668 
L 493.582716 145.386312 
" style="fill:none;stroke:#0000ff;stroke-linecap:square;stroke-width:0.9;"/>
   </g>
   <g id="line2d_96">
    <path clip-path="url(#p36d86ec4d7)" d="M 493.582716 143.953119 
L 558.855 143.953119 
L 558.855 143.953119 
" style="fill:none;stroke:#0000ff;stroke-linecap:square;stroke-width:0.9;"/>
   </g>
  </g>
 </g>
 <defs>
  <clipPath id="p7c8b265387">
   <rect height="85.256273" width="494.487" x="64.368" y="10.8"/>
  </clipPath>
  <clipPath id="p36d86ec4d7">
   <rect height="85.256273" width="494.487" x="64.368" y="108.163727"/>
  </clipPath>
 </defs>
</svg>
