<?xml version="1.0" encoding="UTF-8" standalone="no"?>
<!DOCTYPE svg PUBLIC "-//W3C//DTD SVG 1.1//EN" "http://www.w3.org/Graphics/SVG/1.1/DTD/svg11.dtd">
<svg width="100%" height="100%" viewBox="0 0 32 32" version="1.1" xmlns="http://www.w3.org/2000/svg" xmlns:xlink="http://www.w3.org/1999/xlink" xml:space="preserve" xmlns:serif="http://www.serif.com/" style="fill-rule:evenodd;clip-rule:evenodd;stroke-linejoin:round;stroke-miterlimit:2;">
    <g id="debug" transform="matrix(0.922393,0,0,0.922393,1.24171,1.24171)">
        <g transform="matrix(1.54877,0,0,1.54877,3.60987,3.25846)">
            <path d="M4.978,0.855C4.922,0.634 4.721,0.479 4.494,0.479C4.219,0.479 3.994,0.705 3.994,0.979C3.994,1.035 4.003,1.092 4.022,1.145L4.432,2.497C3.513,3.431 2.998,4.69 3,6L13,6C13.002,4.69 12.487,3.431 11.568,2.497L11.978,1.145C11.997,1.092 12.006,1.035 12.006,0.979C12.006,0.705 11.781,0.479 11.506,0.479C11.279,0.479 11.078,0.634 11.022,0.855L10.731,1.811C9.919,1.28 8.97,0.999 8,1C7.03,0.999 6.081,1.281 5.269,1.811L4.979,0.855L4.978,0.855Z" style="fill:rgb(108,112,125);fill-rule:nonzero;"/>
        </g>
        <g transform="matrix(1.54877,0,0,1.54877,3.60987,3.25846)">
            <path d="M13,6L13,7L8.5,7L8.5,15.975C11.042,15.72 13,13.555 13,11L13.5,11C13.774,11 14,11.226 14,11.5L14,12C14,12.274 14.226,12.5 14.5,12.5C14.774,12.5 15,12.274 15,12L15,11.5C15,10.677 14.323,10 13.5,10L13,10L13,9L14.5,9C14.774,9 15,8.774 15,8.5C15,8.226 14.774,8 14.5,8L13,8L13,7L13.5,7C14.323,7 15,6.323 15,5.5L15,5C15,4.726 14.774,4.5 14.5,4.5C14.226,4.5 14,4.726 14,5L14,5.5C14,5.774 13.774,6 13.5,6L13,6ZM7.5,15.975L7.5,7L3,7L3,6L2.5,6C2.226,6 2,5.774 2,5.5L2,5C2,4.726 1.774,4.5 1.5,4.5C1.226,4.5 1,4.726 1,5L1,5.5C1,6.323 1.677,7 2.5,7L3,7L3,8L1.5,8C1.226,8 1,8.226 1,8.5C1,8.774 1.226,9 1.5,9L3,9L3,10L2.5,10C1.677,10 1,10.677 1,11.5L1,12C1,12.274 1.226,12.5 1.5,12.5C1.774,12.5 2,12.274 2,12L2,11.5C2,11.226 2.226,11 2.5,11L3,11C3,13.555 4.958,15.72 7.5,15.975Z" style="fill:rgb(108,112,125);fill-rule:nonzero;"/>
        </g>
    </g>
</svg>
