<?xml version="1.0" encoding="UTF-8" standalone="no"?>
<!DOCTYPE svg PUBLIC "-//W3C//DTD SVG 1.1//EN" "http://www.w3.org/Graphics/SVG/1.1/DTD/svg11.dtd">
<svg width="100%" height="100%" viewBox="0 0 32 32" version="1.1" xmlns="http://www.w3.org/2000/svg" xmlns:xlink="http://www.w3.org/1999/xlink" xml:space="preserve" xmlns:serif="http://www.serif.com/" style="fill-rule:evenodd;clip-rule:evenodd;stroke-linejoin:round;stroke-miterlimit:2;">
    <g id="new-file">
        <g transform="matrix(1.25,0,0,1.25,6,6)">
            <path d="M8,6.5C8.274,6.5 8.5,6.726 8.5,7L8.5,8.5L10,8.5C10.274,8.5 10.5,8.726 10.5,9C10.5,9.274 10.274,9.5 10,9.5L8.5,9.5L8.5,11C8.5,11.274 8.274,11.5 8,11.5C7.726,11.5 7.5,11.274 7.5,11L7.5,9.5L6,9.5C5.726,9.5 5.5,9.274 5.5,9C5.5,8.726 5.726,8.5 6,8.5L7.5,8.5L7.5,7C7.5,6.726 7.726,6.5 8,6.5" style="fill:rgb(221,221,221);fill-rule:nonzero;"/>
        </g>
        <g transform="matrix(1.25,0,0,1.25,6,6)">
            <path d="M14,4.5L14,14C14,15.097 13.097,16 12,16L4,16C2.903,16 2,15.097 2,14L2,2C2,0.903 2.903,0 4,0L9.5,0L14,4.5ZM11,4.5C10.177,4.5 9.5,3.823 9.5,3L9.5,1L4,1C3.451,1 3,1.451 3,2L3,14C3,14.549 3.451,15 4,15L12,15C12.549,15 13,14.549 13,14L13,4.5L11,4.5Z" style="fill:rgb(221,221,221);fill-rule:nonzero;"/>
        </g>
    </g>
</svg>
