<?xml version="1.0" encoding="UTF-8" standalone="no"?>
<!DOCTYPE svg PUBLIC "-//W3C//DTD SVG 1.1//EN" "http://www.w3.org/Graphics/SVG/1.1/DTD/svg11.dtd">
<svg width="100%" height="100%" viewBox="0 0 32 32" version="1.1" xmlns="http://www.w3.org/2000/svg" xmlns:xlink="http://www.w3.org/1999/xlink" xml:space="preserve" xmlns:serif="http://www.serif.com/" style="fill-rule:evenodd;clip-rule:evenodd;stroke-linejoin:round;stroke-miterlimit:2;">
    <g id="file-earmark-zip" transform="matrix(0.0446429,0,0,0.0446429,4.57143,4.57143)">
        <g transform="matrix(28,0,0,28,32,32)">
            <path d="M5,7.5C5,6.951 5.451,6.5 6,6.5L7,6.5C7.549,6.5 8,6.951 8,7.5L8,8.438L8.4,10.037C8.502,10.446 8.335,10.877 7.984,11.111L7.054,11.731C6.719,11.955 6.279,11.955 5.944,11.731L5.015,11.111C4.665,10.877 4.498,10.446 4.6,10.037L5,8.438L5,7.5ZM7,7.5L6,7.5L6,8.438C6,8.52 5.99,8.602 5.97,8.681L5.57,10.279L6.5,10.899L7.429,10.279L7.029,8.681C7.009,8.601 7,8.52 7,8.438L7,7.5Z" style="fill:rgb(221,221,221);fill-rule:nonzero;"/>
        </g>
        <g transform="matrix(28,0,0,28,32,32)">
            <path d="M14,4.5L14,14C14,15.097 13.097,16 12,16L4,16C2.903,16 2,15.097 2,14L2,2C2,0.903 2.903,0 4,0L9.5,0L14,4.5ZM11,4.5C10.177,4.5 9.5,3.823 9.5,3L9.5,1L7.5,1L7.5,2L6.5,2L6.5,3L7.5,3L7.5,4L6.5,4L6.5,5L7.5,5L7.5,6L6,6L6,5L5,5L5,4L6,4L6,3L5,3L5,2L6,2L6,1L4,1C3.451,1 3,1.451 3,2L3,14C3,14.549 3.451,15 4,15L12,15C12.549,15 13,14.549 13,14L13,4.5L11,4.5Z" style="fill:rgb(221,221,221);fill-rule:nonzero;"/>
        </g>
    </g>
</svg>
