<?xml version="1.0" encoding="UTF-8" standalone="no"?><!DOCTYPE svg PUBLIC "-//W3C//DTD SVG 1.1//EN" "http://www.w3.org/Graphics/SVG/1.1/DTD/svg11.dtd"><svg width="100%" height="100%" viewBox="0 0 8 8" version="1.1" xmlns="http://www.w3.org/2000/svg" xmlns:xlink="http://www.w3.org/1999/xlink" xml:space="preserve" xmlns:serif="http://www.serif.com/" style="fill-rule:evenodd;clip-rule:evenodd;stroke-linejoin:round;stroke-miterlimit:2;"><g id="floppy"><rect x="4.14" y="2.04" width="0.6" height="0.9" style="fill:#ddd;fill-rule:nonzero;"/><path d="M1.89,1.44l3.476,0c0.119,0 0.234,0.048 0.318,0.132l0.424,0.424c0.085,0.085 0.132,0.199 0.132,0.318l0,3.476c0,0.247 -0.203,0.45 -0.45,0.45l-3.9,0c-0.247,0 -0.45,-0.203 -0.45,-0.45l0,-3.9c0,-0.247 0.203,-0.45 0.45,-0.45m-0.15,0.45l0,3.9c0,0.082 0.068,0.15 0.15,0.15l0.15,0l0,-1.35c0,-0.247 0.203,-0.45 0.45,-0.45l2.7,0c0.247,0 0.45,0.203 0.45,0.45l0,1.35l0.15,0c0.082,0 0.15,-0.068 0.15,-0.15l-0,-3.476c-0,-0.039 -0.016,-0.078 -0.044,-0.106l-0.424,-0.424c-0.028,-0.028 -0.067,-0.044 -0.106,-0.044l-0.026,0l-0,1.35c-0,0.247 -0.203,0.45 -0.45,0.45l-2.1,0c-0.247,0 -0.45,-0.203 -0.45,-0.45l-0,-1.35l-0.45,0c-0.082,0 -0.15,0.068 -0.15,0.15m0.9,1.2c-0,0.082 0.068,0.15 0.15,0.15l2.1,0c0.082,0 0.15,-0.068 0.15,-0.15l-0,-1.35l-2.4,0l-0,1.35Zm-0.3,2.85l3,0l-0,-1.35c-0,-0.082 -0.068,-0.15 -0.15,-0.15l-2.7,0c-0.082,0 -0.15,0.068 -0.15,0.15l-0,1.35Z" style="fill:#ddd;fill-rule:nonzero;"/></g></svg>