<?xml version="1.0" encoding="UTF-8" standalone="no"?>
<!DOCTYPE svg PUBLIC "-//W3C//DTD SVG 1.1//EN" "http://www.w3.org/Graphics/SVG/1.1/DTD/svg11.dtd">
<svg width="100%" height="100%" viewBox="0 0 32 32" version="1.1" xmlns="http://www.w3.org/2000/svg" xmlns:xlink="http://www.w3.org/1999/xlink" xml:space="preserve" xmlns:serif="http://www.serif.com/" style="fill-rule:evenodd;clip-rule:evenodd;stroke-linejoin:round;stroke-miterlimit:2;">
    <g transform="matrix(1.49956,0,0,1.49956,4.00238,4.00662)">
        <g id="warning">
            <path d="M8.982,1.566C8.781,1.215 8.406,0.999 8.002,0.999C7.598,0.999 7.223,1.215 7.022,1.566L0.165,13.233C-0.292,14.011 0.256,15 1.145,15L14.858,15C15.747,15 16.296,14.01 15.838,13.233L8.982,1.566ZM8,5C8.535,5 8.954,5.462 8.9,5.995L8.55,9.502C8.526,9.786 8.285,10.007 8,10.007C7.715,10.007 7.474,9.786 7.45,9.502L7.1,5.995C7.097,5.965 7.096,5.935 7.096,5.905C7.096,5.409 7.504,5 8,5ZM8.002,11C8.551,11 9.002,11.451 9.002,12C9.002,12.549 8.551,13 8.002,13C7.453,13 7.002,12.549 7.002,12C7.002,11.451 7.453,11 8.002,11Z" style="fill:rgb(241,191,99);fill-rule:nonzero;"/>
        </g>
    </g>
</svg>
