<?xml version="1.0" encoding="UTF-8" standalone="no"?>
<!DOCTYPE svg PUBLIC "-//W3C//DTD SVG 1.1//EN" "http://www.w3.org/Graphics/SVG/1.1/DTD/svg11.dtd">
<svg width="165" height="33" viewBox="0 0 165 33" version="1.1" xmlns="http://www.w3.org/2000/svg" xmlns:xlink="http://www.w3.org/1999/xlink" xml:space="preserve" xmlns:serif="http://www.serif.com/" style="fill-rule:evenodd;clip-rule:evenodd;stroke-linejoin:round;stroke-miterlimit:2;">
    <g transform="matrix(1.52987,0,0,0.997446,-0.142924,0.123427)">
        <path d="M107.946,3.345L107.946,29.492C107.946,31.406 106.932,32.961 105.684,32.961L2.37,32.961C1.122,32.961 0.109,31.406 0.109,29.492L0.109,3.345C0.109,1.431 1.122,-0.124 2.37,-0.124L105.684,-0.124C106.932,-0.124 107.946,1.431 107.946,3.345Z" style="fill:white;fill-opacity:0.8;"/>
    </g>
    <g id="logo" transform="matrix(0.867899,0,0,0.867899,66.0106,2.14238)">
        <path id="Fill-1" d="M15.2,0.4C18,0.3 21.3,0.9 21.9,2.8C22.9,6 17.8,10.7 13.4,13C12.3,13.6 11.7,13.7 11.4,13.7C11.1,13.7 11.1,13.4 11.2,13.2C11.4,12.9 12.1,12.2 13,11.4C18,7.5 19.6,4.6 18.7,3.5C18.1,2.8 15.6,2.2 12.9,2.2C12.2,2.2 10.3,2.4 10.1,1.7C10,1.2 12.5,0.5 15.2,0.4" style="fill:rgb(0,83,134);"/>
        <path id="Fill-3" d="M9.4,15.2C11.8,15.1 14.7,15.5 16.3,16.7C17.1,17.3 17.7,18.5 17.3,19.8C16.4,23.5 12.9,28 5.1,31.4C2.6,32.5 0.7,32.9 0.3,32.6C-0.1,32.3 1.1,29.8 1.5,29C2.7,26.4 4.3,23.8 5.8,21.5C6.4,20.6 7.2,19.1 8,19.3C8.7,19.4 7.9,21 7.3,22C6.4,23.7 3.9,28.4 4.7,28.7C6.5,29.3 15,22.8 13.8,19.2C13.2,17.5 9.5,17.4 7.2,17.4C6.1,17.4 3.8,17.7 3.7,16.8C3.6,16.1 7.2,15.3 9.4,15.2" style="fill:rgb(0,83,134);"/>
        <path id="Fill-5" d="M27.8,11.2C29.2,11.5 30.4,11.7 30.7,12.3C31,13 29.4,13 28.7,13C24.9,13.1 22.7,13.1 22.5,14.4C22.4,16 24.1,17.7 25.8,20C27.4,22.1 29.2,24.2 28.7,26.2C28.1,28.6 25.1,29.2 22.2,29.2C19.5,29.2 16.9,28.8 15.8,28.6C14.4,28.3 14.7,27.7 15,27.5C15.4,27.3 17.7,27.3 19.3,27.2C20.6,27 24.4,27 25,26C25.7,24.8 23.9,22.8 22.3,20.6C20.3,17.9 18,15.2 19.2,13.1C20.8,10.6 25.3,10.7 27.8,11.2" style="fill:rgb(0,83,134);"/>
        <path id="Fill-6" d="M86.6,18.5C89.6,18.5 90.8,17.5 91.3,15.1L92,11.4C92,11.2 91.9,11.1 91.7,11.1L90.2,11.1L89.8,13.2L89.6,14.3L89.4,15.3C89.1,16.7 88.3,17.3 86.8,17.3C85.2,17.3 84.7,16.7 85,15.3C85,15.3 85.1,15 85.1,14.9L85.4,13.2L85.8,11.1L84.3,11.1C84.1,11.1 83.9,11.2 83.9,11.4L83.2,15.1C82.7,17.7 84,18.5 86.6,18.5ZM35.1,22.6C34.9,23.6 35.7,24.1 37.3,25.1C39.1,26.2 39.5,26.3 39.3,26.9C39.2,27.4 38.7,27.4 37.9,27.4L34.7,27.4C34.3,27.4 34.1,27.5 34.1,27.9L34,28.5L38,28.5C39.8,28.5 41,28.4 41.4,27.3C41.6,26.8 41.6,26.2 41.1,25.6C40.8,25.3 40.5,25.1 40,24.8C37.7,23.5 37.1,23.4 37.2,22.7C37.3,22.3 37.5,22.3 38.4,22.3L41.1,22.3C41.5,22.3 41.7,22.2 41.7,21.8L41.8,21.1L38.4,21.1C36.6,21.2 35.4,21.2 35.1,22.6ZM52.9,22.6C52.7,23.6 53.5,24.1 55.1,25.1C56.9,26.2 57.3,26.3 57.1,26.9C57,27.4 56.5,27.4 55.7,27.4L52.5,27.4C52.1,27.4 51.9,27.5 51.9,27.9L51.8,28.6L55.8,28.6C57.6,28.6 58.8,28.5 59.2,27.4C59.4,26.9 59.4,26.3 58.9,25.7C58.6,25.4 58.3,25.2 57.8,24.9C55.5,23.6 54.9,23.5 55,22.8C55.1,22.4 55.3,22.4 56.2,22.4L58.9,22.4C59.3,22.4 59.5,22.3 59.5,21.9L59.6,21.2L56.2,21.2C54.3,21.2 53.2,21.2 52.9,22.6ZM97.8,22.6C97.6,23.6 98.4,24.1 100,25.1C101.8,26.2 102.2,26.3 102,26.9C101.9,27.4 101.4,27.4 100.6,27.4L97.4,27.4C97,27.4 96.8,27.5 96.8,27.9L96.7,28.6L100.7,28.6C102.5,28.6 103.7,28.5 104.1,27.4C104.3,26.9 104.3,26.3 103.8,25.7C103.5,25.4 103.2,25.2 102.7,24.9C100.4,23.6 99.8,23.5 99.9,22.8C100,22.4 100.2,22.4 101.1,22.4L103.8,22.4C104.2,22.4 104.4,22.3 104.4,21.9L104.5,21.2L101.1,21.2C99.2,21.2 98.1,21.2 97.8,22.6ZM71.3,17.1C71.5,16.6 71.5,16 71,15.4C70.7,15.1 70.4,14.9 69.9,14.6C67.6,13.3 67,13.2 67.1,12.5C67.2,12.1 67.4,12.1 68.3,12.1L71,12.1C71.4,12.1 71.6,12 71.6,11.6L71.7,10.9L68.3,10.9C66.4,10.9 65.2,10.9 64.9,12.3C64.7,13.3 65.5,13.8 67.1,14.8C68.9,15.9 69.3,16 69.1,16.6C69,17.1 68.5,17.1 67.7,17.1L64.5,17.1C64.1,17.1 63.9,17.2 63.9,17.6L63.8,18.3L67.8,18.3C69.7,18.4 70.8,18.2 71.3,17.1ZM62.7,17.1C62.9,16.6 62.9,16 62.4,15.4C62.1,15.1 61.8,14.9 61.3,14.6C59,13.3 58.4,13.2 58.5,12.5C58.6,12.1 58.8,12.1 59.7,12.1L62.4,12.1C62.8,12.1 63,12 63,11.6L63.1,10.9L59.7,10.9C57.8,10.9 56.6,10.9 56.3,12.3C56.1,13.3 56.9,13.8 58.5,14.8C60.3,15.9 60.7,16 60.5,16.6C60.4,17.1 59.9,17.1 59.1,17.1L56,17.1C55.6,17.1 55.4,17.2 55.4,17.6L55.3,18.3L59.3,18.3C61.1,18.4 62.3,18.2 62.7,17.1ZM100.1,11C99.7,11 99.5,11.1 99.5,11.4L99.4,12.1L102.3,12.1L101.1,18.3L102.4,18.3C102.8,18.3 103,18.2 103,17.8L104.1,12.1L106.5,12.1C106.8,12.1 107,11.9 107,11.7L107.1,11L100.1,11ZM37.3,13.1C37.1,13.1 37,13.2 37,13.3L36,18.3L40.3,18.3C42.7,18.3 44.4,17.4 44.9,14.6C45.3,12.5 44.4,11 41.9,11L36.7,11L36.7,11.1C36.6,11.6 36.6,12.1 37.5,12.1L41.3,12.1C43.1,12.1 43.4,13 43,14.6C42.6,16.2 42,17 40.6,17.1L38,17.1L38.8,12.9L37.3,12.9L37.3,13.1ZM99.1,17.7C99.2,17.4 99,17.3 98.8,17.3L94.9,17.3L96.1,11.4C96.1,11.3 96,11.2 95.9,11.2L94.3,11.2L92.9,18.5L99.1,18.5L99.1,17.7ZM87.4,21.2L85.7,21.2L82.5,24L80.4,21.1L78.7,21.1C78.4,21.1 78.3,21.3 78.2,21.6L76.9,28.4L78.3,28.4C78.6,28.4 78.8,28.3 78.8,28L79.8,22.9L81.4,25.2C81.4,25.3 81.6,25.4 81.8,25.4L82.5,25.4C82.7,25.4 82.9,25.3 83,25.2L85.5,22.9L84.5,28C84.4,28.3 84.6,28.4 84.9,28.4L86.3,28.4L87.6,21.6C87.7,21.4 87.6,21.2 87.4,21.2ZM69.8,21.7L68.5,28.5L75.3,28.5L75.4,27.8C75.5,27.5 75.4,27.4 75,27.4L70.5,27.4L70.9,25.4L74.9,25.4C75,25.4 75.1,25.3 75.1,25.2L75.3,24.4C75.3,24.3 75.3,24.2 75.2,24.2L71.2,24.2L71.6,22.2L75.9,22.2C76.1,22.2 76.3,22.2 76.4,21.9L76.6,21L70.5,21C70.1,21.2 69.9,21.3 69.8,21.7ZM89.9,21.7L88.6,28.5L95.4,28.5L95.5,27.8C95.6,27.5 95.5,27.4 95.1,27.4L90.6,27.4L91,25.4L95,25.4C95.1,25.4 95.2,25.3 95.2,25.2L95.4,24.4C95.4,24.3 95.4,24.2 95.3,24.2L91.3,24.2L91.7,22.2L96,22.2C96.2,22.2 96.4,22.2 96.5,21.9L96.7,21L90.6,21C90.2,21.2 90,21.3 89.9,21.7ZM49.3,21.4L48.7,24.7C47.6,25 44.6,25.7 45.1,23.3L45.5,21.1L44,21.1C43.8,21.1 43.7,21.2 43.7,21.3L43.3,23.3C42.6,27.1 46.2,26.6 48.5,25.9L48,28.5L49.3,28.5C49.7,28.5 49.9,28.4 49.9,28L51.2,21.2L49.6,21.2C49.5,21.2 49.4,21.3 49.3,21.4ZM68.7,21.9L68.8,21.2L61.8,21.2C61.4,21.2 61.2,21.3 61.2,21.6L61,22.3L63.9,22.3L62.7,28.5L64,28.5C64.4,28.5 64.6,28.4 64.6,28L65.7,22.3L68.1,22.3C68.5,22.3 68.6,22.2 68.7,21.9ZM48.5,14.1C48.8,12.7 49.6,12.2 51.1,12.2C52.7,12.2 53.1,12.8 52.8,14.1C52.8,14.1 52.7,14.4 52.7,14.5C52.7,14.7 52.6,15 52.2,15L48.3,15L48.5,14.1ZM46.3,18.4L47.7,18.4L48.1,16.3L52.4,16.3L52,18.4L53.4,18.4C53.6,18.4 53.8,18.3 53.8,18.1L54.5,14.4C55,11.6 53.4,11 51.3,11C48.7,11 47.3,11.6 46.7,14.4L46,18C46,18.3 46.1,18.4 46.3,18.4ZM75.4,14.1C75.7,12.7 76.5,12.2 78,12.2C79.6,12.2 80,12.8 79.7,14.1C79.7,14.1 79.6,14.4 79.6,14.5C79.6,14.7 79.5,15 79.1,15L75.2,15L75.4,14.1ZM73.2,18.4L74.6,18.4L75,16.3L79.3,16.3L78.9,18.4L80.3,18.4C80.5,18.4 80.7,18.3 80.7,18.1L81.4,14.4C81.9,11.6 80.3,11 78.2,11C75.6,11 74.2,11.6 73.6,14.4L72.9,18C72.9,18.3 73,18.4 73.2,18.4Z" style="fill:rgb(0,83,134);"/>
    </g>
    <g transform="matrix(1.10317,0,0,1.10317,5.73537,21.2429)">
        <g id="made-by" serif:id="made by">
            <text x="0px" y="0px" style="font-family:'3DSV2-SemiBold', '3DS V2';font-weight:600;font-size:12.691px;fill:rgb(0,83,134);">made by</text>
        </g>
    </g>
</svg>
