<?xml version="1.0" encoding="UTF-8" standalone="no"?>
<svg
   width="100%"
   height="100%"
   viewBox="0 0 512 512"
   version="1.1"
   xml:space="preserve"
   style="fill-rule:evenodd;clip-rule:evenodd;stroke-linejoin:round;stroke-miterlimit:2;"
   id="svg490"
   sodipodi:docname="arrow-clockwise.svg"
   inkscape:version="1.2.2 (732a01da63, 2022-12-09)"
   xmlns:inkscape="http://www.inkscape.org/namespaces/inkscape"
   xmlns:sodipodi="http://sodipodi.sourceforge.net/DTD/sodipodi-0.dtd"
   xmlns="http://www.w3.org/2000/svg"
   xmlns:svg="http://www.w3.org/2000/svg"><defs
   id="defs494" /><sodipodi:namedview
   id="namedview492"
   pagecolor="#ffffff"
   bordercolor="#000000"
   borderopacity="0.25"
   inkscape:showpageshadow="2"
   inkscape:pageopacity="0.0"
   inkscape:pagecheckerboard="0"
   inkscape:deskcolor="#d1d1d1"
   showgrid="false"
   inkscape:zoom="2.0058594"
   inkscape:cx="255.75073"
   inkscape:cy="255.75073"
   inkscape:window-width="3840"
   inkscape:window-height="2050"
   inkscape:window-x="-12"
   inkscape:window-y="-12"
   inkscape:window-maximized="1"
   inkscape:current-layer="svg490" />
    <g
   id="arrow-clockwise"
   transform="matrix(35.570583,0,0,35.570583,-33.624074,1.9533122)">
        <path
   d="M 8,3 C 5.258,3.001 3.002,5.258 3.002,8 c 0,2.743 2.257,5 5,5 2.743,0 5,-2.257 5,-5 0,-0.72 -0.156,-1.432 -0.456,-2.086 -0.025,-0.06 -0.038,-0.125 -0.038,-0.19 0,-0.274 0.226,-0.5 0.5,-0.5 0.188,0 0.361,0.106 0.446,0.273 0.36,0.785 0.547,1.639 0.547,2.503 0,3.292 -2.708,6 -6,6 -3.291,0 -6,-2.708 -6,-6 C 2.001,4.709 4.709,2.001 8,2 Z"
   id="path485" />
        <path
   d="M 8,4.466 V 0.534 c 0,-0.137 0.113,-0.25 0.25,-0.25 0.058,0 0.115,0.021 0.16,0.058 l 2.36,1.966 c 0.12,0.1 0.12,0.284 0,0.384 L 8.41,4.658 C 8.365,4.695 8.308,4.716 8.25,4.716 8.113,4.716 8,4.603 8,4.466 Z"
   style="fill-rule:nonzero"
   id="path487" />
    </g>
</svg>
