<?xml version="1.0" encoding="UTF-8" standalone="no"?>
<!DOCTYPE svg PUBLIC "-//W3C//DTD SVG 1.1//EN" "http://www.w3.org/Graphics/SVG/1.1/DTD/svg11.dtd">
<svg width="100%" height="100%" viewBox="0 0 16 16" version="1.1" xmlns="http://www.w3.org/2000/svg" xmlns:xlink="http://www.w3.org/1999/xlink" xml:space="preserve" xmlns:serif="http://www.serif.com/" style="fill-rule:evenodd;clip-rule:evenodd;stroke-linejoin:round;stroke-miterlimit:2;">
    <g id="error" transform="matrix(0.0273499,0,0,0.0273499,0.999805,0.998437)">
        <path d="M459.1,52.4L442.6,6.5C440.7,2.6 436.5,0 432.1,0C427.7,0 423.6,2.6 421.7,6.5L405.2,52.4L359.2,69.2C354.9,70.8 351.9,75.1 352,79.6C352,84.1 355,88.3 359.2,89.8L404.9,106.6L421.7,152.4C423.2,156.8 427.5,159.9 432.1,159.9C436.7,159.9 441,156.8 442.5,152.4L459,106.6L504.7,89.8C508.9,88.3 511.9,84.1 511.9,79.6C511.9,75 508.9,70.7 504.7,69.2L459.1,52.4ZM326.7,105.4C314.2,92.9 293.9,92.9 281.4,105.4L278.5,108.3C256.5,100.3 232.7,96 208,96C93.1,96 0,189.1 0,304C0,418.9 93.1,512 208,512C322.9,512 416,418.9 416,304C416,279.3 411.7,255.5 403.8,233.5L406.7,230.6C419.2,218.1 419.2,197.8 406.7,185.3L326.7,105.3L326.7,105.4ZM200,192C142.6,192 96,238.6 96,296L96,304C96,312.8 88.8,320 80,320C71.2,320 64,312.8 64,304L64,296C64,220.9 124.9,160 200,160L208,160C216.8,160 224,167.2 224,176C224,184.8 216.8,192 208,192L200,192Z" style="fill:rgb(185,96,89);fill-rule:nonzero;"/>
    </g>
</svg>
