<?xml version="1.0" encoding="UTF-8" standalone="no"?>
<!DOCTYPE svg PUBLIC "-//W3C//DTD SVG 1.1//EN" "http://www.w3.org/Graphics/SVG/1.1/DTD/svg11.dtd">
<svg width="100%" height="100%" viewBox="0 0 16 16" version="1.1" xmlns="http://www.w3.org/2000/svg" xmlns:xlink="http://www.w3.org/1999/xlink" xml:space="preserve" xmlns:serif="http://www.serif.com/" style="fill-rule:evenodd;clip-rule:evenodd;stroke-linejoin:round;stroke-miterlimit:2;">
    <g id="filter" transform="matrix(0.0273485,0,0,0.0273485,0.996684,1.12485)">
        <path d="M3.9,54.9C10.5,40.9 24.5,32 40,32L472,32C487.5,32 501.5,40.9 508.1,54.9C514.7,68.9 512.7,85.4 502.9,97.4L320,320.9L320,448C320,460.1 313.2,471.2 302.3,476.6C291.4,482 278.5,480.9 268.8,473.6L204.8,425.6C196.7,419.6 192,410.1 192,400L192,320.9L9,97.3C-0.7,85.4 -2.8,68.8 3.9,54.9Z" style="fill-rule:nonzero;"/>
    </g>
</svg>
