<?xml version="1.0" encoding="UTF-8" standalone="no"?>
<!DOCTYPE svg PUBLIC "-//W3C//DTD SVG 1.1//EN" "http://www.w3.org/Graphics/SVG/1.1/DTD/svg11.dtd">
<svg width="100%" height="100%" viewBox="0 0 32 32" version="1.1" xmlns="http://www.w3.org/2000/svg" xmlns:xlink="http://www.w3.org/1999/xlink" xml:space="preserve" xmlns:serif="http://www.serif.com/" style="fill-rule:evenodd;clip-rule:evenodd;stroke-linejoin:round;stroke-miterlimit:2;">
    <g id="folder-open" transform="matrix(1.53846,0,0,1.53846,3.69132,2.92308)">
        <path d="M1,3.5C1,2.677 1.677,2 2.5,2L5.264,2C6.222,2 7.024,2.56 7.575,3.184C7.985,3.648 8.48,4 9,4L13.5,4C14.323,4 15,4.677 15,5.5L15,6.14C15.57,6.405 15.94,7.016 15.856,7.686L15.216,12.81C15.06,14.056 13.989,15.001 12.733,15L3.266,15C2.011,15 0.941,14.055 0.785,12.81L0.145,7.686C0.064,7.041 0.411,6.414 1,6.14L1,3.5ZM2,6L14,6L14,5.5C14,5.226 13.774,5 13.5,5L9,5C8.036,5 7.29,4.371 6.826,3.846C6.374,3.334 5.82,3 5.264,3L2.5,3C2.226,3 2,3.226 2,3.5L2,6ZM1.633,7C1.359,7 1.133,7.226 1.133,7.5C1.133,7.521 1.134,7.541 1.137,7.562L1.777,12.686C1.87,13.433 2.513,14 3.266,14L12.734,14C13.487,14 14.13,13.433 14.223,12.686L14.863,7.562C14.866,7.541 14.867,7.521 14.867,7.5C14.867,7.226 14.641,7 14.367,7L1.633,7Z" style="fill-rule:nonzero;"/>
    </g>
</svg>
