<?xml version="1.0" encoding="UTF-8" standalone="no"?>
<svg
   width="100%"
   height="100%"
   viewBox="0 0 512 512"
   version="1.1"
   xml:space="preserve"
   style="fill-rule:evenodd;clip-rule:evenodd;stroke-linejoin:round;stroke-miterlimit:2;"
   id="svg460"
   sodipodi:docname="folder-open.svg"
   inkscape:version="1.2.2 (732a01da63, 2022-12-09)"
   xmlns:inkscape="http://www.inkscape.org/namespaces/inkscape"
   xmlns:sodipodi="http://sodipodi.sourceforge.net/DTD/sodipodi-0.dtd"
   xmlns="http://www.w3.org/2000/svg"
   xmlns:svg="http://www.w3.org/2000/svg"><defs
   id="defs464" /><sodipodi:namedview
   id="namedview462"
   pagecolor="#ffffff"
   bordercolor="#000000"
   borderopacity="0.25"
   inkscape:showpageshadow="2"
   inkscape:pageopacity="0.0"
   inkscape:pagecheckerboard="0"
   inkscape:deskcolor="#d1d1d1"
   showgrid="false"
   inkscape:zoom="2.0058594"
   inkscape:cx="255.75073"
   inkscape:cy="255.75073"
   inkscape:window-width="3840"
   inkscape:window-height="2050"
   inkscape:window-x="-12"
   inkscape:window-y="-12"
   inkscape:window-maximized="1"
   inkscape:current-layer="svg460" />
    <g
   id="folder-open"
   transform="matrix(31.205761,0,0,31.205761,6.3342383,-9.2488708)">
        <path
   d="M 1,3.5 C 1,2.677 1.677,2 2.5,2 H 5.264 C 6.222,2 7.024,2.56 7.575,3.184 7.985,3.648 8.48,4 9,4 h 4.5 C 14.323,4 15,4.677 15,5.5 v 0.64 c 0.57,0.265 0.94,0.876 0.856,1.546 l -0.64,5.124 C 15.06,14.056 13.989,15.001 12.733,15 H 3.266 C 2.011,15 0.941,14.055 0.785,12.81 L 0.145,7.686 C 0.064,7.041 0.411,6.414 1,6.14 Z M 2,6 H 14 V 5.5 C 14,5.226 13.774,5 13.5,5 H 9 C 8.036,5 7.29,4.371 6.826,3.846 6.374,3.334 5.82,3 5.264,3 H 2.5 C 2.226,3 2,3.226 2,3.5 Z M 1.633,7 c -0.274,0 -0.5,0.226 -0.5,0.5 0,0.021 10e-4,0.041 0.004,0.062 l 0.64,5.124 C 1.87,13.433 2.513,14 3.266,14 h 9.468 c 0.753,0 1.396,-0.567 1.489,-1.314 l 0.64,-5.124 C 14.866,7.541 14.867,7.521 14.867,7.5 14.867,7.226 14.641,7 14.367,7 Z"
   style="fill-rule:nonzero"
   id="path457" />
    </g>
</svg>
