<?xml version="1.0" encoding="UTF-8" standalone="no"?>
<svg
   width="16"
   height="16"
   viewBox="0 0 16 16"
   version="1.1"
   xml:space="preserve"
   style="clip-rule:evenodd;fill-rule:evenodd;stroke-linejoin:round;stroke-miterlimit:2"
   id="svg509"
   sodipodi:docname="gear.svg"
   inkscape:version="1.2.2 (732a01da63, 2022-12-09)"
   xmlns:inkscape="http://www.inkscape.org/namespaces/inkscape"
   xmlns:sodipodi="http://sodipodi.sourceforge.net/DTD/sodipodi-0.dtd"
   xmlns="http://www.w3.org/2000/svg"
   xmlns:svg="http://www.w3.org/2000/svg"><defs
   id="defs513" /><sodipodi:namedview
   id="namedview511"
   pagecolor="#ffffff"
   bordercolor="#000000"
   borderopacity="0.25"
   inkscape:showpageshadow="2"
   inkscape:pageopacity="0.0"
   inkscape:pagecheckerboard="0"
   inkscape:deskcolor="#d1d1d1"
   showgrid="false"
   inkscape:zoom="90.774833"
   inkscape:cx="9.6502519"
   inkscape:cy="8.7359015"
   inkscape:window-width="3840"
   inkscape:window-height="2050"
   inkscape:window-x="-12"
   inkscape:window-y="-12"
   inkscape:window-maximized="1"
   inkscape:current-layer="svg509" />
    <g
   id="gear"
   transform="matrix(0.95694015,0,0,0.95694015,8.0019469,8.0701068)">
        <g
   transform="translate(-8,-8)"
   id="g506">
            <path
   d="M 8,4.754 C 6.219,4.754 4.754,6.219 4.754,8 4.754,9.781 6.219,11.246 8,11.246 9.781,11.246 11.246,9.781 11.246,8 11.246,6.219 9.781,4.754 8,4.754 Z M 5.754,8 C 5.754,6.768 6.768,5.754 8,5.754 9.232,5.754 10.246,6.768 10.246,8 10.246,9.232 9.232,10.246 8,10.246 6.768,10.246 5.754,9.232 5.754,8 Z"
   style="fill-rule:nonzero"
   id="path502" />
            <path
   d="m 9.796,1.343 c -0.527,-1.79 -3.065,-1.79 -3.592,0 L 6.11,1.662 C 6.001,2.032 5.659,2.288 5.273,2.288 5.127,2.288 4.983,2.252 4.855,2.182 L 4.563,2.022 C 2.923,1.13 1.13,2.924 2.023,4.563 l 0.159,0.292 c 0.07,0.128 0.106,0.272 0.106,0.418 0,0.386 -0.256,0.728 -0.626,0.837 L 1.343,6.204 c -1.79,0.527 -1.79,3.065 0,3.592 L 1.662,9.89 c 0.37,0.109 0.626,0.451 0.626,0.837 0,0.146 -0.036,0.29 -0.106,0.418 l -0.16,0.292 c -0.892,1.64 0.901,3.434 2.541,2.54 l 0.292,-0.159 c 0.128,-0.07 0.272,-0.106 0.418,-0.106 0.386,0 0.728,0.256 0.837,0.626 l 0.094,0.319 c 0.527,1.79 3.065,1.79 3.592,0 L 9.89,14.338 c 0.109,-0.37 0.451,-0.626 0.837,-0.626 0.146,0 0.29,0.036 0.418,0.106 l 0.292,0.16 c 1.64,0.893 3.434,-0.902 2.54,-2.541 l -0.159,-0.292 c -0.07,-0.128 -0.106,-0.272 -0.106,-0.418 0,-0.386 0.256,-0.728 0.626,-0.837 l 0.319,-0.094 c 1.79,-0.527 1.79,-3.065 0,-3.592 L 14.338,6.11 c -0.37,-0.109 -0.626,-0.451 -0.626,-0.837 0,-0.146 0.036,-0.29 0.106,-0.418 l 0.16,-0.292 C 14.871,2.923 13.076,1.13 11.437,2.023 L 11.145,2.182 C 11.017,2.252 10.873,2.288 10.727,2.288 10.341,2.288 9.999,2.032 9.89,1.662 Z M 7.163,1.626 c 0.246,-0.835 1.428,-0.835 1.674,0 l 0.094,0.319 c 0.234,0.794 0.969,1.343 1.797,1.343 0.313,0 0.621,-0.078 0.896,-0.228 L 11.915,2.9 c 0.764,-0.415 1.6,0.42 1.184,1.185 L 12.94,4.377 c -0.149,0.275 -0.228,0.583 -0.228,0.895 0,0.829 0.55,1.563 1.344,1.797 l 0.318,0.094 c 0.835,0.246 0.835,1.428 0,1.674 l -0.319,0.094 c -0.794,0.234 -1.343,0.969 -1.343,1.797 0,0.313 0.078,0.621 0.228,0.896 l 0.16,0.291 c 0.415,0.764 -0.42,1.6 -1.185,1.184 L 11.624,12.94 c -0.275,-0.15 -0.583,-0.228 -0.896,-0.228 -0.829,0 -1.563,0.549 -1.797,1.344 l -0.094,0.318 c -0.246,0.835 -1.428,0.835 -1.674,0 L 7.069,14.055 C 6.835,13.261 6.1,12.712 5.273,12.712 4.96,12.712 4.652,12.79 4.377,12.94 L 4.085,13.1 C 3.321,13.515 2.485,12.68 2.901,11.915 L 3.06,11.624 C 3.21,11.349 3.289,11.04 3.289,10.727 3.289,9.898 2.74,9.164 1.945,8.93 L 1.626,8.836 C 0.791,8.59 0.791,7.408 1.626,7.162 L 1.945,7.068 C 2.739,6.834 3.288,6.099 3.288,5.272 3.288,4.959 3.209,4.652 3.06,4.377 L 2.9,4.085 C 2.485,3.321 3.32,2.485 4.085,2.901 L 4.377,3.06 C 4.652,3.21 4.96,3.288 5.273,3.288 6.1,3.288 6.835,2.739 7.069,1.945 Z"
   style="fill-rule:nonzero"
   id="path504" />
        </g>
    </g>
</svg>
