<?xml version="1.0" encoding="UTF-8" standalone="no"?>
<!DOCTYPE svg PUBLIC "-//W3C//DTD SVG 1.1//EN" "http://www.w3.org/Graphics/SVG/1.1/DTD/svg11.dtd">
<svg width="100%" height="100%" viewBox="0 0 16 16" version="1.1" xmlns="http://www.w3.org/2000/svg" xmlns:xlink="http://www.w3.org/1999/xlink" xml:space="preserve" xmlns:serif="http://www.serif.com/" style="fill-rule:evenodd;clip-rule:evenodd;stroke-linejoin:round;stroke-miterlimit:2;">
    <g id="list" transform="matrix(0.03125,0,0,0.03125,1,-1.05471e-15)">
        <path d="M0,96C0,78.3 14.3,64 32,64L416,64C433.7,64 448,78.3 448,96C448,113.7 433.7,128 416,128L32,128C14.3,128 0,113.7 0,96ZM0,256C0,238.3 14.3,224 32,224L416,224C433.7,224 448,238.3 448,256C448,273.7 433.7,288 416,288L32,288C14.3,288 0,273.7 0,256ZM448,416C448,433.7 433.7,448 416,448L32,448C14.3,448 0,433.7 0,416C0,398.3 14.3,384 32,384L416,384C433.7,384 448,398.3 448,416Z" style="fill-rule:nonzero;"/>
    </g>
</svg>
